STARTFONT 2.3
FONT -FontForge-Syncopate-Book-R-Normal--20-200-72-72-P-150-ISO10646-1
SIZE 20 72 72  2
FONTBOUNDINGBOX 37 24 -4 -5
COMMENT "Generated by fontforge, http://fontforge.sourceforge.net"
COMMENT "Copyright (c) 2010 by Brian J. Bonislawsky DBA Astigmatic (AOETI). All rights reserved. Available under the Apache 2.0 licence.http://www.apache.org/licenses/LICENSE-2.0.html"
STARTPROPERTIES 40
FOUNDRY "FontForge"
FAMILY_NAME "Syncopate"
WEIGHT_NAME "Book"
SLANT "R"
SETWIDTH_NAME "Normal"
ADD_STYLE_NAME ""
PIXEL_SIZE 20
POINT_SIZE 200
RESOLUTION_X 72
RESOLUTION_Y 72
SPACING "P"
AVERAGE_WIDTH 150
CHARSET_REGISTRY "ISO10646"
CHARSET_ENCODING "1"
FONTNAME_REGISTRY ""
CHARSET_COLLECTIONS "ISO8859-2 ISO8859-9 ISO8859-4 ISO10646-1"
BITS_PER_PIXEL 2
FONT_NAME "Syncopate-Regular"
FACE_NAME "Syncopate Regular"
COPYRIGHT "Copyright (c) 2010 by Brian J. Bonislawsky DBA Astigmatic (AOETI). All rights reserved. Available under the Apache 2.0 licence.http://www.apache.org/licenses/LICENSE-2.0.html"
FONT_VERSION "001.001"
FONT_ASCENT 16
FONT_DESCENT 4
UNDERLINE_POSITION -2
UNDERLINE_THICKNESS 1
X_HEIGHT 13
CAP_HEIGHT 13
RAW_ASCENT 799
RAW_DESCENT 200
NORM_SPACE 8
RELATIVE_WEIGHT 40
RELATIVE_SETWIDTH 70
SUPERSCRIPT_X 0
SUPERSCRIPT_Y 5
SUPERSCRIPT_SIZE 4
SUBSCRIPT_X 0
SUBSCRIPT_Y 5
SUBSCRIPT_SIZE 4
AVG_LOWERCASE_WIDTH 172
AVG_UPPERCASE_WIDTH 164
ENDPROPERTIES
CHARS 370
STARTCHAR space
ENCODING 32
SWIDTH 375 0
DWIDTH 8 0
BBX 1 1 0 0
BITMAP
00
ENDCHAR
STARTCHAR exclam
ENCODING 33
SWIDTH 274 0
DWIDTH 6 0
BBX 2 14 2 0
BITMAP
E0
E0
D0
D0
D0
D0
90
90
90
90
00
00
E0
E0
ENDCHAR
STARTCHAR quotedbl
ENCODING 34
SWIDTH 290 0
DWIDTH 6 0
BBX 5 4 0 10
BITMAP
71C0
71C0
71C0
30C0
ENDCHAR
STARTCHAR numbersign
ENCODING 35
SWIDTH 701 0
DWIDTH 14 0
BBX 12 14 1 0
BITMAP
009024
00C024
00C030
018060
3FFFFF
024090
0300C0
0300C0
060180
FFFFFC
090240
0C0300
080300
180600
ENDCHAR
STARTCHAR dollar
ENCODING 36
SWIDTH 767 0
DWIDTH 15 0
BBX 13 16 1 -1
BITMAP
000C0000
06FFE400
2D4C1A00
700C0000
700C0000
340C0000
1E4C0000
01BE4000
000EB400
000C1B00
000C0280
000C0280
000C0240
650C1A00
1AFFE400
000C0000
ENDCHAR
STARTCHAR percent
ENCODING 37
SWIDTH 992 0
DWIDTH 20 0
BBX 17 14 1 0
BITMAP
1BE0007400
742C00D000
D009028000
D00A060000
D0091C0000
742C340000
1BE0A00000
000282F900
00070E0740
000D1801C0
00242800C0
00A01801C0
01C00E0740
034002F900
ENDCHAR
STARTCHAR ampersand
ENCODING 38
SWIDTH 926 0
DWIDTH 19 0
BBX 16 14 1 0
BITMAP
006FE000
02906800
07001C00
07002800
0340A000
01DB4000
01F80000
0A5D0009
2807400C
7000A018
60001D34
740003E0
1E401A74
06BFA41E
ENDCHAR
STARTCHAR quotesingle
ENCODING 39
SWIDTH 140 0
DWIDTH 3 0
BBX 2 4 0 10
BITMAP
70
70
70
30
ENDCHAR
STARTCHAR parenleft
ENCODING 40
SWIDTH 420 0
DWIDTH 8 0
BBX 5 16 1 -1
BITMAP
0080
0380
0A00
1C00
2800
3400
7000
7000
7000
7000
3400
2800
1C00
0A00
0380
0080
ENDCHAR
STARTCHAR parenright
ENCODING 41
SWIDTH 420 0
DWIDTH 8 0
BBX 5 16 2 -1
BITMAP
9000
7400
1C00
0A00
0700
0340
0280
0180
0180
0280
0340
0700
0A00
1C00
7400
9000
ENDCHAR
STARTCHAR asterisk
ENCODING 42
SWIDTH 503 0
DWIDTH 10 0
BBX 8 8 1 6
BITMAP
0180
4181
755D
0BE0
0BE0
755D
4181
0180
ENDCHAR
STARTCHAR plus
ENCODING 43
SWIDTH 634 0
DWIDTH 13 0
BBX 10 9 1 2
BITMAP
007000
007000
007000
007000
7FFFF0
007000
007000
007000
007000
ENDCHAR
STARTCHAR comma
ENCODING 44
SWIDTH 185 0
DWIDTH 4 0
BBX 3 4 0 -2
BITMAP
28
34
70
60
ENDCHAR
STARTCHAR hyphen
ENCODING 45
SWIDTH 540 0
DWIDTH 11 0
BBX 9 1 1 6
BITMAP
7FFF40
ENDCHAR
STARTCHAR period
ENCODING 46
SWIDTH 185 0
DWIDTH 4 0
BBX 2 2 1 0
BITMAP
E0
E0
ENDCHAR
STARTCHAR slash
ENCODING 47
SWIDTH 500 0
DWIDTH 10 0
BBX 8 14 1 0
BITMAP
000A
000D
0018
0034
0060
00D0
0180
0240
0700
0900
1C00
2400
7000
A000
ENDCHAR
STARTCHAR zero
ENCODING 48
SWIDTH 833 0
DWIDTH 17 0
BBX 15 14 1 0
BITMAP
006FE400
07901E00
1D000280
340000A0
70000070
A0000034
90000034
90000034
A0000034
70000070
340000A0
1D000280
07901E00
006FE400
ENDCHAR
STARTCHAR one
ENCODING 49
SWIDTH 339 0
DWIDTH 7 0
BBX 5 14 0 0
BITMAP
1B40
E640
0240
0240
0240
0240
0240
0240
0240
0240
0240
0240
0240
0240
ENDCHAR
STARTCHAR two
ENCODING 50
SWIDTH 728 0
DWIDTH 15 0
BBX 13 14 1 0
BITMAP
06FE9000
79017800
80000A00
00000700
00000700
00000A00
00001D00
00007400
0002D000
001A0000
00B40000
07800000
6D000000
FFFFFF40
ENDCHAR
STARTCHAR three
ENCODING 51
SWIDTH 726 0
DWIDTH 15 0
BBX 13 14 0 0
BITMAP
06FFA400
29005E00
00000340
00000280
00000340
00006D00
007FE000
00006E00
00000280
000001C0
000001C0
00000280
65005E00
1AFFA400
ENDCHAR
STARTCHAR four
ENCODING 52
SWIDTH 769 0
DWIDTH 15 0
BBX 15 14 0 0
BITMAP
00007D00
0001DD00
00074D00
000D0D00
00380D00
00E00D00
03800D00
0E000D00
28000D00
7FFFFFF8
00000D00
00000D00
00000D00
00000D00
ENDCHAR
STARTCHAR five
ENCODING 53
SWIDTH 738 0
DWIDTH 15 0
BBX 13 14 1 0
BITMAP
7FFFFD00
70000000
70000000
70000000
70000000
70000000
7BFFA000
65006D00
00000740
00000280
00000280
00000740
A4006D00
1BFF9000
ENDCHAR
STARTCHAR six
ENCODING 54
SWIDTH 772 0
DWIDTH 15 0
BBX 14 14 1 0
BITMAP
006FF900
07900640
1D000000
24000000
70000000
A06FE800
AB901B40
B80001C0
A00000A0
700000A0
34000090
1C0001C0
07901B40
00AFE400
ENDCHAR
STARTCHAR seven
ENCODING 55
SWIDTH 669 0
DWIDTH 13 0
BBX 13 14 0 0
BITMAP
FFFFFF80
00000740
00000A00
00001C00
00003400
0000B000
0001D000
00028000
00070000
000D0000
002C0000
00740000
00A00000
01C00000
ENDCHAR
STARTCHAR eight
ENCODING 56
SWIDTH 793 0
DWIDTH 16 0
BBX 14 14 1 0
BITMAP
01BFE400
0E401B00
28000280
24000180
2C000740
07906D00
01BFE000
0B906E00
780002D0
A00000A0
D0000060
A00000D0
2E401B80
06BFE900
ENDCHAR
STARTCHAR nine
ENCODING 57
SWIDTH 776 0
DWIDTH 16 0
BBX 14 14 1 0
BITMAP
06FF9000
2D406D00
60000B00
D0000280
C00001C0
D00001C0
A00007D0
2D0069C0
06FF91C0
00000180
00000340
00000A00
25017800
0AFE9000
ENDCHAR
STARTCHAR colon
ENCODING 58
SWIDTH 245 0
DWIDTH 5 0
BBX 3 9 1 0
BITMAP
74
74
00
00
00
00
00
74
74
ENDCHAR
STARTCHAR semicolon
ENCODING 59
SWIDTH 234 0
DWIDTH 5 0
BBX 3 11 1 -2
BITMAP
74
74
00
00
00
00
00
70
A0
A0
D0
ENDCHAR
STARTCHAR less
ENCODING 60
SWIDTH 634 0
DWIDTH 13 0
BBX 10 9 1 2
BITMAP
000060
000B90
01B800
1A4000
780000
1A4000
01B800
000B90
000060
ENDCHAR
STARTCHAR equal
ENCODING 61
SWIDTH 634 0
DWIDTH 13 0
BBX 10 5 1 4
BITMAP
7FFFF0
000000
000000
000000
7FFFF0
ENDCHAR
STARTCHAR greater
ENCODING 62
SWIDTH 634 0
DWIDTH 13 0
BBX 11 9 1 2
BITMAP
640000
1A4000
01B800
000B90
0000B4
000B90
01B800
1A4000
640000
ENDCHAR
STARTCHAR question
ENCODING 63
SWIDTH 568 0
DWIDTH 11 0
BBX 9 14 1 0
BITMAP
2FE800
901B40
000280
0001C0
0001C0
000740
002D00
0AE000
0D0000
0D0000
000000
000000
0E0000
0E0000
ENDCHAR
STARTCHAR at
ENCODING 64
SWIDTH 1016 0
DWIDTH 20 0
BBX 18 14 1 0
BITMAP
0006FF9000
00B9006D00
0780000740
0D000001C0
2802FEC090
340E46C0A0
7028018060
60340280A0
70340240D0
34290B8780
280BF5FD00
0A00000000
02E4016400
002BFE9000
ENDCHAR
STARTCHAR A
ENCODING 65
SWIDTH 812 0
DWIDTH 16 0
BBX 16 14 0 0
BITMAP
0002C000
0007A000
00097000
001C2800
00241C00
00700A00
00900700
01C00280
024001C0
07FFFFE0
0D000030
1C000028
3400000C
7000000A
ENDCHAR
STARTCHAR B
ENCODING 66
SWIDTH 836 0
DWIDTH 17 0
BBX 14 14 2 0
BITMAP
BFFFF800
90001B00
90000240
90000280
90000240
90001A00
BFFFF900
90000780
900000D0
90000090
900000A0
900000D0
90000680
BFFFF900
ENDCHAR
STARTCHAR C
ENCODING 67
SWIDTH 869 0
DWIDTH 17 0
BBX 15 14 1 0
BITMAP
006BFE40
02E401A4
0E000008
28000000
70000000
A0000000
A0000000
A0000000
A0000000
70000000
28000000
0E000008
02E401A4
006BFE40
ENDCHAR
STARTCHAR D
ENCODING 68
SWIDTH 910 0
DWIDTH 18 0
BBX 15 14 2 0
BITMAP
BFFFE900
90001B80
900000E0
90000074
90000028
90000018
9000001C
9000001C
90000018
90000028
90000074
900000E0
90001B80
BFFFE900
ENDCHAR
STARTCHAR E
ENCODING 69
SWIDTH 754 0
DWIDTH 15 0
BBX 12 14 2 0
BITMAP
BFFFFD
A00000
A00000
A00000
A00000
A00000
BFFFFC
A00000
A00000
A00000
A00000
A00000
A00000
BFFFFE
ENDCHAR
STARTCHAR F
ENCODING 70
SWIDTH 687 0
DWIDTH 14 0
BBX 11 14 2 0
BITMAP
BFFFFC
900000
900000
900000
900000
900000
BFFFF4
900000
900000
900000
900000
900000
900000
900000
ENDCHAR
STARTCHAR G
ENCODING 71
SWIDTH 910 0
DWIDTH 18 0
BBX 16 14 1 0
BITMAP
001BFE40
02E401B4
0A000009
28000000
70000000
A0000000
A0000000
A0003FFE
A000000A
7000000A
2800000A
0E00000A
02E4005E
002BFFA4
ENDCHAR
STARTCHAR H
ENCODING 72
SWIDTH 949 0
DWIDTH 19 0
BBX 15 14 2 0
BITMAP
90000028
90000028
90000028
90000028
90000028
90000028
BFFFFFF8
90000028
90000028
90000028
90000028
90000028
90000028
90000028
ENDCHAR
STARTCHAR I
ENCODING 73
SWIDTH 287 0
DWIDTH 6 0
BBX 2 14 2 0
BITMAP
90
90
90
90
90
90
90
90
90
90
90
90
90
90
ENDCHAR
STARTCHAR J
ENCODING 74
SWIDTH 590 0
DWIDTH 12 0
BBX 10 14 0 0
BITMAP
0000A0
0000A0
0000A0
0000A0
0000A0
0000A0
0000A0
0000A0
0000A0
0000A0
000090
0001D0
940740
6BF900
ENDCHAR
STARTCHAR K
ENCODING 75
SWIDTH 806 0
DWIDTH 16 0
BBX 14 14 2 0
BITMAP
A0000740
A0002900
A001E000
A00B4000
A0780000
A2D00000
AE000000
A7400000
A1E00000
A02D0000
A0078000
A000B400
A0001E00
A00006D0
ENDCHAR
STARTCHAR L
ENCODING 76
SWIDTH 701 0
DWIDTH 14 0
BBX 12 14 2 0
BITMAP
900000
900000
900000
900000
900000
900000
900000
900000
900000
900000
900000
900000
900000
BFFFFD
ENDCHAR
STARTCHAR M
ENCODING 77
SWIDTH 1139 0
DWIDTH 23 0
BBX 19 14 2 0
BITMAP
B000000038
B4000000B8
AC000001E8
9600000368
9240000A28
91C0000C28
90A0002428
9034006028
901800D028
9009028028
9007070028
9002890028
9000E80028
9000740028
ENDCHAR
STARTCHAR N
ENCODING 78
SWIDTH 936 0
DWIDTH 19 0
BBX 15 14 2 0
BITMAP
B0000024
BC000024
9B000024
92800024
90A00024
90280024
900E0024
90038024
9000E024
90007824
90001D24
90000764
900001F4
90000074
ENDCHAR
STARTCHAR O
ENCODING 79
SWIDTH 983 0
DWIDTH 20 0
BBX 18 14 1 0
BITMAP
006BFE4000
02D401B800
0E00000A00
2800000340
70000001C0
A0000000D0
A0000000D0
A0000000D0
A0000000D0
70000001C0
2800000340
0E00000A00
02D401B800
006BFE4000
ENDCHAR
STARTCHAR P
ENCODING 80
SWIDTH 818 0
DWIDTH 16 0
BBX 14 14 2 0
BITMAP
BFFFE800
90001B40
900001C0
900000D0
900000D0
900000D0
900001C0
90000B40
BFFFF800
90000000
90000000
90000000
90000000
90000000
ENDCHAR
STARTCHAR Q
ENCODING 81
SWIDTH 983 0
DWIDTH 20 0
BBX 19 14 1 0
BITMAP
006BFE4000
02D401B800
0E00000A00
2800000340
70000001C0
A0000000D0
A0000000D0
A0000000D0
A0000000D0
70000001C0
2800090340
0E0006DA00
02D401FF90
006BFE41B4
ENDCHAR
STARTCHAR R
ENCODING 82
SWIDTH 833 0
DWIDTH 17 0
BBX 14 14 2 0
BITMAP
BFFFE400
90001A00
90000340
90000280
90000280
90000340
90001A00
BFFFE400
9000A000
90002800
90000D00
90000700
90000280
900000E0
ENDCHAR
STARTCHAR S
ENCODING 83
SWIDTH 787 0
DWIDTH 16 0
BBX 14 14 1 0
BITMAP
06BFE500
1D401600
30000000
70000000
34000000
1E400000
01BE4000
0006B800
00000B40
000001C0
000000D0
000001C0
65001B40
16FFE400
ENDCHAR
STARTCHAR T
ENCODING 84
SWIDTH 708 0
DWIDTH 14 0
BBX 14 14 0 0
BITMAP
BFFFFFE0
000A0000
000A0000
000A0000
000A0000
000A0000
000A0000
000A0000
000A0000
000A0000
000A0000
000A0000
000A0000
000A0000
ENDCHAR
STARTCHAR U
ENCODING 85
SWIDTH 891 0
DWIDTH 18 0
BBX 14 14 2 0
BITMAP
D00000A0
D00000A0
D00000A0
D00000A0
D00000A0
D00000A0
D00000A0
D00000A0
D00000A0
D00000A0
A00000A0
740001C0
1E401B40
02BFE400
ENDCHAR
STARTCHAR V
ENCODING 86
SWIDTH 817 0
DWIDTH 16 0
BBX 16 14 0 0
BITMAP
7000000A
2800001C
1C000028
0A000070
070000A0
028000D0
01C00280
00D00340
00700A00
00340D00
001C2800
000D3400
0007A000
0003D000
ENDCHAR
STARTCHAR W
ENCODING 87
SWIDTH 1266 0
DWIDTH 25 0
BBX 24 14 1 0
BITMAP
D0000780000D
A0000AC0001C
70000DD00028
34001CA00034
280024300070
0D00702800D0
0A00A01C01C0
0700D00D0280
0341C00A0340
028280070700
01C340034A00
009700028C00
007A0001E800
003C0000B400
ENDCHAR
STARTCHAR X
ENCODING 88
SWIDTH 821 0
DWIDTH 16 0
BBX 15 14 1 0
BITMAP
740000A0
1D000280
07000B00
02C01C00
00A07400
0029D000
000B4000
001F8000
0034E000
00E03400
02801D00
0A000740
280001D0
A0000074
ENDCHAR
STARTCHAR Y
ENCODING 89
SWIDTH 763 0
DWIDTH 15 0
BBX 14 14 1 0
BITMAP
E00001D0
34000340
1C000A00
0B002800
02807000
00D1D000
00774000
001E0000
000D0000
000D0000
000D0000
000D0000
000D0000
000D0000
ENDCHAR
STARTCHAR Z
ENCODING 90
SWIDTH 728 0
DWIDTH 15 0
BBX 13 14 1 0
BITMAP
7FFFFF00
00001D00
00003800
0000A000
0002C000
00070000
001D0000
00340000
00A00000
02800000
07000000
1D000000
34000000
BFFFFF40
ENDCHAR
STARTCHAR bracketleft
ENCODING 91
SWIDTH 409 0
DWIDTH 8 0
BBX 6 16 2 -1
BITMAP
7FD0
6000
6000
6000
6000
6000
6000
6000
6000
6000
6000
6000
6000
6000
6000
7FD0
ENDCHAR
STARTCHAR backslash
ENCODING 92
SWIDTH 500 0
DWIDTH 10 0
BBX 8 14 1 0
BITMAP
A000
7000
2400
1C00
0900
0700
0240
0180
00D0
0060
0034
0018
000D
000A
ENDCHAR
STARTCHAR bracketright
ENCODING 93
SWIDTH 409 0
DWIDTH 8 0
BBX 5 16 1 -1
BITMAP
FF80
0280
0280
0280
0280
0280
0280
0280
0280
0280
0280
0280
0280
0280
0280
FF80
ENDCHAR
STARTCHAR asciicircum
ENCODING 94
SWIDTH 459 0
DWIDTH 9 0
BBX 8 6 1 8
BITMAP
0780
0DC0
18A0
3434
A018
D00D
ENDCHAR
STARTCHAR underscore
ENCODING 95
SWIDTH 500 0
DWIDTH 10 0
BBX 10 1 0 -2
BITMAP
FFFFF0
ENDCHAR
STARTCHAR grave
ENCODING 96
SWIDTH 527 0
DWIDTH 11 0
BBX 5 3 2 11
BITMAP
9000
6D00
0640
ENDCHAR
STARTCHAR a
ENCODING 97
SWIDTH 888 0
DWIDTH 18 0
BBX 15 14 1 0
BITMAP
05BFF900
194006D0
00000070
00000024
00000028
0005ABF8
01BA5428
1E400028
74000028
A0000028
A0000028
B0000078
2D405BA8
06FFA428
ENDCHAR
STARTCHAR b
ENCODING 98
SWIDTH 836 0
DWIDTH 17 0
BBX 14 14 2 0
BITMAP
BFFFF800
90001B00
90000240
90000280
90000240
90001A00
BFFFF900
90000780
900000D0
90000090
900000A0
900000D0
90000680
BFFFF900
ENDCHAR
STARTCHAR c
ENCODING 99
SWIDTH 869 0
DWIDTH 17 0
BBX 15 14 1 0
BITMAP
006BFE40
02E401A4
0E000008
28000000
70000000
A0000000
A0000000
A0000000
A0000000
70000000
28000000
0E000008
02E401A4
006BFE40
ENDCHAR
STARTCHAR d
ENCODING 100
SWIDTH 910 0
DWIDTH 18 0
BBX 15 14 2 0
BITMAP
BFFFE900
90001B80
900000E0
90000074
90000028
90000018
9000001C
9000001C
90000018
90000028
90000074
900000E0
90001B80
BFFFE900
ENDCHAR
STARTCHAR e
ENCODING 101
SWIDTH 910 0
DWIDTH 18 0
BBX 16 14 1 0
BITMAP
006FF900
029006D0
0E000038
2800000C
7000000A
A0000006
BFFFFFFF
A0000000
B0000000
74000000
28000000
0E000000
02E40168
006BFE90
ENDCHAR
STARTCHAR f
ENCODING 102
SWIDTH 817 0
DWIDTH 16 0
BBX 13 14 2 0
BITMAP
06BFFFC0
2E400000
74000000
A0000000
90000000
90000000
BFFFFFC0
90000000
90000000
90000000
90000000
90000000
90000000
90000000
ENDCHAR
STARTCHAR g
ENCODING 103
SWIDTH 910 0
DWIDTH 18 0
BBX 16 14 1 0
BITMAP
001BFE40
02E401B4
0A000009
28000000
70000000
A0000000
A0000000
A0003FFE
A000000A
7000000A
2800000A
0E00000A
02E4005E
002BFFA4
ENDCHAR
STARTCHAR h
ENCODING 104
SWIDTH 949 0
DWIDTH 19 0
BBX 15 14 2 0
BITMAP
90000028
90000028
90000028
90000028
90000028
90000028
BFFFFFF8
90000028
90000028
90000028
90000028
90000028
90000028
90000028
ENDCHAR
STARTCHAR i
ENCODING 105
SWIDTH 287 0
DWIDTH 6 0
BBX 2 14 2 0
BITMAP
90
90
90
90
90
90
90
90
90
90
90
90
90
90
ENDCHAR
STARTCHAR j
ENCODING 106
SWIDTH 590 0
DWIDTH 12 0
BBX 10 14 0 0
BITMAP
0000A0
0000A0
0000A0
0000A0
0000A0
0000A0
0000A0
0000A0
0000A0
0000A0
000090
0001D0
940740
6BF900
ENDCHAR
STARTCHAR k
ENCODING 107
SWIDTH 867 0
DWIDTH 17 0
BBX 14 14 2 0
BITMAP
900000D0
900001C0
90000340
90000A00
90007800
901A9000
BFFE0000
9016E000
90002D00
90000740
900001C0
900000A0
90000070
90000070
ENDCHAR
STARTCHAR l
ENCODING 108
SWIDTH 709 0
DWIDTH 14 0
BBX 12 14 2 0
BITMAP
900000
900000
900000
900000
900000
900000
900000
900000
900000
900000
A00000
600000
390000
0AFFFF
ENDCHAR
STARTCHAR m
ENCODING 109
SWIDTH 1246 0
DWIDTH 25 0
BBX 21 14 2 0
BITMAP
90BF801BE400
9741B1A41A00
B8002B400340
A0001C000280
90001C000280
90001C000280
90001C000280
90001C000280
90001C000280
90001C000280
90001C000280
90001C000280
90001C000280
90001C000280
ENDCHAR
STARTCHAR n
ENCODING 110
SWIDTH 933 0
DWIDTH 19 0
BBX 15 14 2 0
BITMAP
901BFE40
91E401D0
AA400070
B4000034
A0000024
90000024
90000024
90000024
90000024
90000024
90000024
90000024
90000024
90000024
ENDCHAR
STARTCHAR o
ENCODING 111
SWIDTH 983 0
DWIDTH 20 0
BBX 18 14 1 0
BITMAP
006BFE4000
02D401B800
0E00000A00
2800000340
70000001C0
A0000000D0
A0000000D0
A0000000D0
A0000000D0
70000001C0
2800000340
0E00000A00
02D401B800
006BFE4000
ENDCHAR
STARTCHAR p
ENCODING 112
SWIDTH 818 0
DWIDTH 16 0
BBX 14 14 2 0
BITMAP
BFFFE800
90001B40
900001C0
900000D0
900000D0
900000D0
900001C0
90000B40
BFFFF800
90000000
90000000
90000000
90000000
90000000
ENDCHAR
STARTCHAR q
ENCODING 113
SWIDTH 983 0
DWIDTH 20 0
BBX 19 14 1 0
BITMAP
006BFE4000
02D401B800
0E00000A00
2800000340
70000001C0
A0000000D0
A0000000D0
A0000000D0
A0000000D0
70000001C0
2800000340
0E00000A00
02D401BE50
006BFE45B4
ENDCHAR
STARTCHAR r
ENCODING 114
SWIDTH 609 0
DWIDTH 12 0
BBX 11 14 2 0
BITMAP
901BF4
91E400
AA0000
B40000
A00000
900000
900000
900000
900000
900000
900000
900000
900000
900000
ENDCHAR
STARTCHAR s
ENCODING 115
SWIDTH 787 0
DWIDTH 16 0
BBX 14 14 1 0
BITMAP
06BFE500
1D401600
30000000
70000000
34000000
1E400000
01BE4000
0006B800
00000B40
000001C0
000000D0
000001C0
65001B40
16FFE400
ENDCHAR
STARTCHAR t
ENCODING 116
SWIDTH 708 0
DWIDTH 14 0
BBX 14 14 0 0
BITMAP
BFFFFFE0
000A0000
000A0000
000A0000
000A0000
000A0000
000A0000
000A0000
000A0000
000A0000
000A0000
000A0000
000A0000
000A0000
ENDCHAR
STARTCHAR u
ENCODING 117
SWIDTH 931 0
DWIDTH 19 0
BBX 15 14 2 0
BITMAP
90000034
90000034
90000034
90000034
90000034
90000034
90000034
90000034
90000034
90000034
A00000B4
700007B4
29017934
06FE9034
ENDCHAR
STARTCHAR v
ENCODING 118
SWIDTH 817 0
DWIDTH 16 0
BBX 16 14 0 0
BITMAP
7000000A
2800001C
1C000028
0A000070
070000A0
028000D0
01C00280
00D00340
00700A00
00340D00
001C2800
000D3400
0007A000
0003D000
ENDCHAR
STARTCHAR w
ENCODING 119
SWIDTH 1266 0
DWIDTH 25 0
BBX 24 14 1 0
BITMAP
D0000780000D
A0000AC0001C
70000DD00028
34001CA00034
280024300070
0D00702800D0
0A00A01C01C0
0700D00D0280
0341C00A0340
028280070700
01C340034A00
009700028C00
007A0001E800
003C0000B400
ENDCHAR
STARTCHAR x
ENCODING 120
SWIDTH 821 0
DWIDTH 16 0
BBX 15 14 1 0
BITMAP
740000A0
1D000280
07000B00
02C01C00
00A07400
0029D000
000B4000
001F8000
0034E000
00E03400
02801D00
0A000740
280001D0
A0000074
ENDCHAR
STARTCHAR y
ENCODING 121
SWIDTH 911 0
DWIDTH 18 0
BBX 15 14 1 0
BITMAP
7000001C
7000001C
7000001C
7000001C
3400002C
2400007C
1C0001DC
0B501A1C
01BFE41C
0000001C
00000038
000000B0
69001B80
1AFFE900
ENDCHAR
STARTCHAR z
ENCODING 122
SWIDTH 728 0
DWIDTH 15 0
BBX 13 14 1 0
BITMAP
7FFFFF00
00001D00
00003800
0000A000
0002C000
00070000
001D0000
00340000
00A00000
02800000
07000000
1D000000
34000000
BFFFFF40
ENDCHAR
STARTCHAR braceleft
ENCODING 123
SWIDTH 386 0
DWIDTH 8 0
BBX 7 16 0 -1
BITMAP
01B8
0340
0300
0300
0300
0700
0A00
7800
0900
0700
0700
0300
0300
0300
0240
00B8
ENDCHAR
STARTCHAR bar
ENCODING 124
SWIDTH 259 0
DWIDTH 5 0
BBX 2 20 2 -5
BITMAP
D0
D0
D0
D0
D0
D0
D0
D0
D0
D0
D0
D0
D0
D0
D0
D0
D0
D0
D0
D0
ENDCHAR
STARTCHAR braceright
ENCODING 125
SWIDTH 386 0
DWIDTH 8 0
BBX 6 16 1 -1
BITMAP
F800
0A00
0600
0700
0700
0700
0340
00F0
0240
0700
0700
0700
0700
0600
0900
F800
ENDCHAR
STARTCHAR asciitilde
ENCODING 126
SWIDTH 634 0
DWIDTH 13 0
BBX 11 2 1 6
BITMAP
2F9414
506BD0
ENDCHAR
STARTCHAR nonbreakingspace
ENCODING 160
SWIDTH 375 0
DWIDTH 8 0
BBX 1 1 0 0
BITMAP
00
ENDCHAR
STARTCHAR exclamdown
ENCODING 161
SWIDTH 274 0
DWIDTH 6 0
BBX 2 14 2 0
BITMAP
E0
E0
00
00
90
90
90
90
D0
D0
D0
D0
E0
E0
ENDCHAR
STARTCHAR cent
ENCODING 162
SWIDTH 736 0
DWIDTH 15 0
BBX 13 16 1 -1
BITMAP
00060000
00060000
01AFE400
0B561A40
28060080
70060000
A0060000
D0060000
D0060000
A0060000
70060000
28060080
0B561A40
01BFE400
00060000
00060000
ENDCHAR
STARTCHAR sterling
ENCODING 163
SWIDTH 792 0
DWIDTH 16 0
BBX 14 14 1 0
BITMAP
001BFA00
00B40180
01C00000
02800000
03400000
03400000
03400000
BFFFF800
03400000
03400000
03400000
06000000
1FF94060
A406BF80
ENDCHAR
STARTCHAR currency
ENCODING 164
SWIDTH 560 0
DWIDTH 11 0
BBX 9 9 1 2
BITMAP
500080
76FB40
1D1A00
240300
300300
240300
1D1A00
76F740
500080
ENDCHAR
STARTCHAR yen
ENCODING 165
SWIDTH 811 0
DWIDTH 16 0
BBX 14 14 1 0
BITMAP
700000A0
28000280
0A000700
03401D00
01D03800
00B0A000
7FF9FFD0
000F4000
000A0000
7FFFFFD0
000A0000
000A0000
000A0000
000A0000
ENDCHAR
STARTCHAR brokenbar
ENCODING 166
SWIDTH 259 0
DWIDTH 5 0
BBX 2 17 2 -3
BITMAP
D0
D0
D0
D0
D0
D0
D0
00
00
00
D0
D0
D0
D0
D0
D0
D0
ENDCHAR
STARTCHAR section
ENCODING 167
SWIDTH 500 0
DWIDTH 10 0
BBX 8 14 1 0
BITMAP
1BE4
3418
3000
2800
1F80
60B8
900E
B006
2E09
06F4
0028
000C
641C
1BE4
ENDCHAR
STARTCHAR dieresis
ENCODING 168
SWIDTH 527 0
DWIDTH 11 0
BBX 6 1 2 11
BITMAP
7070
ENDCHAR
STARTCHAR copyright
ENCODING 169
SWIDTH 770 0
DWIDTH 15 0
BBX 14 13 1 0
BITMAP
01BF9000
07406800
286F8700
71D05180
934000C0
C7000090
C7000090
C3400090
91D050C0
706F8180
28000700
0B406800
01BF9000
ENDCHAR
STARTCHAR ordfeminine
ENCODING 170
SWIDTH 497 0
DWIDTH 10 0
BBX 9 9 0 5
BITMAP
06FA00
240780
0001C0
06BFC0
3941C0
7006C0
2FFAC0
000000
3FFFC0
ENDCHAR
STARTCHAR guillemotleft
ENCODING 171
SWIDTH 440 0
DWIDTH 9 0
BBX 8 7 0 3
BITMAP
0206
0A1D
2834
70A0
2834
0A1D
0206
ENDCHAR
STARTCHAR logicalnot
ENCODING 172
SWIDTH 634 0
DWIDTH 13 0
BBX 10 4 1 5
BITMAP
7FFFF0
000030
000030
000030
ENDCHAR
STARTCHAR uni00AD
ENCODING 173
SWIDTH 540 0
DWIDTH 11 0
BBX 9 1 1 6
BITMAP
7FFF40
ENDCHAR
STARTCHAR registered
ENCODING 174
SWIDTH 600 0
DWIDTH 12 0
BBX 10 10 1 4
BITMAP
06F900
1D0740
63F890
930C60
830C20
83F820
831860
630990
2D0740
06F900
ENDCHAR
STARTCHAR macron
ENCODING 175
SWIDTH 527 0
DWIDTH 11 0
BBX 6 1 2 11
BITMAP
7FF0
ENDCHAR
STARTCHAR degree
ENCODING 176
SWIDTH 373 0
DWIDTH 7 0
BBX 5 5 1 9
BITMAP
2E40
61C0
90C0
61C0
2E40
ENDCHAR
STARTCHAR plusminus
ENCODING 177
SWIDTH 634 0
DWIDTH 13 0
BBX 10 11 1 1
BITMAP
007000
007000
007000
007000
7FFFF0
007000
007000
007000
007000
000000
7FFFF0
ENDCHAR
STARTCHAR twosuperior
ENCODING 178
SWIDTH 511 0
DWIDTH 10 0
BBX 9 9 0 5
BITMAP
1BF900
640780
0001C0
000180
000740
002900
01D000
1A0000
7FFFC0
ENDCHAR
STARTCHAR threesuperior
ENCODING 179
SWIDTH 512 0
DWIDTH 10 0
BBX 9 9 0 5
BITMAP
1BF900
240740
000280
001B40
02F900
000640
0001C0
640780
1BF900
ENDCHAR
STARTCHAR acute
ENCODING 180
SWIDTH 527 0
DWIDTH 11 0
BBX 5 3 4 11
BITMAP
0240
2E40
A000
ENDCHAR
STARTCHAR micro
ENCODING 181
SWIDTH 705 0
DWIDTH 14 0
BBX 12 13 0 -4
BITMAP
034003
030007
070006
06000A
0A000D
0D001C
0E003C
1E419C
18BE0D
280000
340000
340000
700000
ENDCHAR
STARTCHAR paragraph
ENCODING 182
SWIDTH 585 0
DWIDTH 12 0
BBX 9 14 1 0
BITMAP
0BFF40
3FE240
BFE240
BFE240
BFE240
BFE240
3FE240
0BE240
006240
006240
006240
006240
006240
006240
ENDCHAR
STARTCHAR periodcentered
ENCODING 183
SWIDTH 185 0
DWIDTH 4 0
BBX 2 2 1 6
BITMAP
E0
E0
ENDCHAR
STARTCHAR cedilla
ENCODING 184
SWIDTH 527 0
DWIDTH 11 0
BBX 5 4 3 -4
BITMAP
0800
2F40
0240
FE00
ENDCHAR
STARTCHAR onesuperior
ENCODING 185
SWIDTH 261 0
DWIDTH 5 0
BBX 4 9 0 5
BITMAP
2D
99
09
09
09
09
09
09
09
ENDCHAR
STARTCHAR ordmasculine
ENCODING 186
SWIDTH 520 0
DWIDTH 10 0
BBX 10 9 0 5
BITMAP
06FA00
2902C0
7000A0
600060
7000A0
2902C0
06FA00
000000
3FFFD0
ENDCHAR
STARTCHAR guillemotright
ENCODING 187
SWIDTH 440 0
DWIDTH 9 0
BBX 7 7 1 3
BITMAP
8180
70A0
2C38
0D1C
2C38
70A0
8180
ENDCHAR
STARTCHAR onequarter
ENCODING 188
SWIDTH 857 0
DWIDTH 17 0
BBX 16 14 0 0
BITMAP
2E0000D0
9A000240
0A000A00
0A001C00
0A007400
0A00D000
0A028000
000700B4
001C0264
00341D24
00A06024
0180FFFF
07000024
0D000024
ENDCHAR
STARTCHAR onehalf
ENCODING 189
SWIDTH 937 0
DWIDTH 19 0
BBX 17 14 0 0
BITMAP
2E0000D000
9A00024000
0A000A0000
0A001C0000
0A00740000
0A00D00000
0A02800000
000702FE00
001C0902C0
00340000C0
00A0000240
0180001900
0700019000
0D000BFFC0
ENDCHAR
STARTCHAR threequarters
ENCODING 190
SWIDTH 978 0
DWIDTH 20 0
BBX 18 14 1 0
BITMAP
6FE0002800
9074006000
006401C000
0BD0034000
00680A0000
9028280000
6FE0700000
0000D01E00
000280AA00
000A028600
001C090600
00342FFFE0
0090000600
0280000600
ENDCHAR
STARTCHAR questiondown
ENCODING 191
SWIDTH 568 0
DWIDTH 11 0
BBX 9 14 1 0
BITMAP
001D00
001D00
000000
000000
000D00
001D00
01F800
1E4000
380000
B00000
A00000
700000
2D0180
06FE40
ENDCHAR
STARTCHAR Agrave
ENCODING 192
SWIDTH 812 0
DWIDTH 16 0
BBX 16 18 0 0
BITMAP
00240000
001E4000
00019000
00000000
0002C000
0007A000
00097000
001C2800
00241C00
00700A00
00900700
01C00280
024001C0
07FFFFE0
0D000030
1C000028
3400000C
7000000A
ENDCHAR
STARTCHAR Aacute
ENCODING 193
SWIDTH 812 0
DWIDTH 16 0
BBX 16 18 0 0
BITMAP
00001900
0000B800
00024000
00000000
0002C000
0007A000
00097000
001C2800
00241C00
00700A00
00900700
01C00280
024001C0
07FFFFE0
0D000030
1C000028
3400000C
7000000A
ENDCHAR
STARTCHAR Acircumflex
ENCODING 194
SWIDTH 812 0
DWIDTH 16 0
BBX 16 18 0 0
BITMAP
00029000
00192800
00600600
00000000
0002C000
0007A000
00097000
001C2800
00241C00
00700A00
00900700
01C00280
024001C0
07FFFFE0
0D000030
1C000028
3400000C
7000000A
ENDCHAR
STARTCHAR Atilde
ENCODING 195
SWIDTH 812 0
DWIDTH 16 0
BBX 16 17 0 0
BITMAP
002E4A00
0061B800
00000000
0002C000
0007A000
00097000
001C2800
00241C00
00700A00
00900700
01C00280
024001C0
07FFFFE0
0D000030
1C000028
3400000C
7000000A
ENDCHAR
STARTCHAR Adieresis
ENCODING 196
SWIDTH 812 0
DWIDTH 16 0
BBX 16 16 0 0
BITMAP
002C2800
00000000
0002C000
0007A000
00097000
001C2800
00241C00
00700A00
00900700
01C00280
024001C0
07FFFFE0
0D000030
1C000028
3400000C
7000000A
ENDCHAR
STARTCHAR Aring
ENCODING 197
SWIDTH 812 0
DWIDTH 16 0
BBX 16 19 0 0
BITMAP
000BE000
00182800
00182800
000BE000
00000000
0002C000
0007A000
00097000
001C2800
00241C00
00700A00
00900700
01C00280
024001C0
07FFFFE0
0D000030
1C000028
3400000C
7000000A
ENDCHAR
STARTCHAR AE
ENCODING 198
SWIDTH 1172 0
DWIDTH 23 0
BBX 22 14 0 0
BITMAP
00007FFFFFE0
0000D7000000
000287000000
000707000000
000907000000
001C07000000
003407FFFFD0
00A007000000
01C007000000
03FFFF000000
0A0007000000
1C0007000000
340007000000
B00007FFFFF0
ENDCHAR
STARTCHAR Ccedilla
ENCODING 199
SWIDTH 869 0
DWIDTH 17 0
BBX 15 18 1 -4
BITMAP
006BFE40
02E401A4
0E000008
28000000
70000000
A0000000
A0000000
A0000000
A0000000
70000000
28000000
0E000008
02E401A4
005BFE40
00018000
0002E000
00002400
000FE000
ENDCHAR
STARTCHAR Egrave
ENCODING 200
SWIDTH 754 0
DWIDTH 15 0
BBX 12 18 2 0
BITMAP
060000
06E000
002800
000000
BFFFFD
A00000
A00000
A00000
A00000
A00000
BFFFFC
A00000
A00000
A00000
A00000
A00000
A00000
BFFFFE
ENDCHAR
STARTCHAR Eacute
ENCODING 201
SWIDTH 754 0
DWIDTH 15 0
BBX 12 18 2 0
BITMAP
000180
001B40
006400
000000
BFFFFD
A00000
A00000
A00000
A00000
A00000
BFFFFC
A00000
A00000
A00000
A00000
A00000
A00000
BFFFFE
ENDCHAR
STARTCHAR Ecircumflex
ENCODING 202
SWIDTH 754 0
DWIDTH 15 0
BBX 12 18 2 0
BITMAP
006800
028640
090090
000000
BFFFFD
A00000
A00000
A00000
A00000
A00000
BFFFFC
A00000
A00000
A00000
A00000
A00000
A00000
BFFFFE
ENDCHAR
STARTCHAR Edieresis
ENCODING 203
SWIDTH 754 0
DWIDTH 15 0
BBX 12 16 2 0
BITMAP
038340
000000
BFFFFD
A00000
A00000
A00000
A00000
A00000
BFFFFC
A00000
A00000
A00000
A00000
A00000
A00000
BFFFFE
ENDCHAR
STARTCHAR Igrave
ENCODING 204
SWIDTH 287 0
DWIDTH 6 0
BBX 5 18 -1 0
BITMAP
6400
2E00
0180
0000
0240
0240
0240
0240
0240
0240
0240
0240
0240
0240
0240
0240
0240
0240
ENDCHAR
STARTCHAR Iacute
ENCODING 205
SWIDTH 287 0
DWIDTH 6 0
BBX 4 18 2 0
BITMAP
06
6D
90
00
90
90
90
90
90
90
90
90
90
90
90
90
90
90
ENDCHAR
STARTCHAR Icircumflex
ENCODING 206
SWIDTH 287 0
DWIDTH 6 0
BBX 8 18 -1 0
BITMAP
0680
2964
9009
0000
0240
0240
0240
0240
0240
0240
0240
0240
0240
0240
0240
0240
0240
0240
ENDCHAR
STARTCHAR Idieresis
ENCODING 207
SWIDTH 287 0
DWIDTH 6 0
BBX 6 16 0 0
BITMAP
A0E0
0000
0900
0900
0900
0900
0900
0900
0900
0900
0900
0900
0900
0900
0900
0900
ENDCHAR
STARTCHAR Eth
ENCODING 208
SWIDTH 910 0
DWIDTH 18 0
BBX 17 14 0 0
BITMAP
0BFFFA4000
090005B800
0900001E00
0900000740
0900000280
0900000180
BFFFC001C0
09000001C0
0900000180
0900000280
0900000340
0900000A00
090001B800
0BFFFE4000
ENDCHAR
STARTCHAR Ntilde
ENCODING 209
SWIDTH 936 0
DWIDTH 19 0
BBX 15 17 2 0
BITMAP
007D1800
00C6F400
00000000
B0000024
BC000024
9B000024
92800024
90A00024
90280024
900E0024
90038024
9000E024
90007824
90001D24
90000764
900001F4
90000074
ENDCHAR
STARTCHAR Ograve
ENCODING 210
SWIDTH 983 0
DWIDTH 20 0
BBX 18 18 1 0
BITMAP
0019000000
000B800000
0000600000
0000000000
006BFE4000
02D401B800
0E00000A00
2800000340
70000001C0
A0000000D0
A0000000D0
A0000000D0
A0000000D0
70000001C0
2800000340
0E00000A00
02D401B800
006BFE4000
ENDCHAR
STARTCHAR Oacute
ENCODING 211
SWIDTH 983 0
DWIDTH 20 0
BBX 18 18 1 0
BITMAP
0000060000
00006D0000
0001900000
0000000000
006BFE4000
02D401B800
0E00000A00
2800000340
70000001C0
A0000000D0
A0000000D0
A0000000D0
A0000000D0
70000001C0
2800000340
0E00000A00
02D401B800
006BFE4000
ENDCHAR
STARTCHAR Ocircumflex
ENCODING 212
SWIDTH 983 0
DWIDTH 20 0
BBX 18 18 1 0
BITMAP
0001A00000
000A190000
0024024000
0000000000
006BFE4000
02D401B800
0E00000A00
2800000340
70000001C0
A0000000D0
A0000000D0
A0000000D0
A0000000D0
70000001C0
2800000340
0E00000A00
02D401B800
006BFE4000
ENDCHAR
STARTCHAR Otilde
ENCODING 213
SWIDTH 983 0
DWIDTH 20 0
BBX 18 17 1 0
BITMAP
000B924000
00186E0000
0000000000
006BFE4000
02D401B800
0E00000A00
2800000340
70000001C0
A0000000D0
A0000000D0
A0000000D0
A0000000D0
70000001C0
2800000340
0E00000A00
02D401B800
006BFE4000
ENDCHAR
STARTCHAR Odieresis
ENCODING 214
SWIDTH 983 0
DWIDTH 20 0
BBX 18 16 1 0
BITMAP
000A0E0000
0000000000
006BFE4000
02D401B800
0E00000A00
2800000340
70000001C0
A0000000D0
A0000000D0
A0000000D0
A0000000D0
70000001C0
2800000340
0E00000A00
02D401B800
006BFE4000
ENDCHAR
STARTCHAR multiply
ENCODING 215
SWIDTH 634 0
DWIDTH 13 0
BBX 9 8 2 3
BITMAP
500240
380A00
0E2800
03E000
02E000
0E2800
380A00
500240
ENDCHAR
STARTCHAR Oslash
ENCODING 216
SWIDTH 983 0
DWIDTH 20 0
BBX 18 18 1 -2
BITMAP
0000000D00
0000002800
006BFEB000
02D401F800
0E00028A00
2800060240
70000D01C0
A0002400D0
A0006000D0
A000C000D0
A0024000D0
700A0001C0
281C000340
0E34000A00
02F401B800
01EBFE4000
0340000000
0A00000000
ENDCHAR
STARTCHAR Ugrave
ENCODING 217
SWIDTH 891 0
DWIDTH 18 0
BBX 14 18 2 0
BITMAP
01900000
00B80000
00060000
00000000
D00000A0
D00000A0
D00000A0
D00000A0
D00000A0
D00000A0
D00000A0
D00000A0
D00000A0
D00000A0
A00000A0
740001C0
1E401B40
02BFE400
ENDCHAR
STARTCHAR Uacute
ENCODING 218
SWIDTH 891 0
DWIDTH 18 0
BBX 14 18 2 0
BITMAP
00006000
0006D000
00090000
00000000
D00000A0
D00000A0
D00000A0
D00000A0
D00000A0
D00000A0
D00000A0
D00000A0
D00000A0
D00000A0
A00000A0
740001C0
1E401B40
02BFE400
ENDCHAR
STARTCHAR Ucircumflex
ENCODING 219
SWIDTH 891 0
DWIDTH 18 0
BBX 14 18 2 0
BITMAP
000A0000
00A59000
02401400
00000000
D00000A0
D00000A0
D00000A0
D00000A0
D00000A0
D00000A0
D00000A0
D00000A0
D00000A0
D00000A0
A00000A0
740001C0
1E401B40
02BFE400
ENDCHAR
STARTCHAR Udieresis
ENCODING 220
SWIDTH 891 0
DWIDTH 18 0
BBX 14 16 2 0
BITMAP
00A0A000
00000000
D00000A0
D00000A0
D00000A0
D00000A0
D00000A0
D00000A0
D00000A0
D00000A0
D00000A0
D00000A0
A00000A0
740001C0
1E401B40
02BFE400
ENDCHAR
STARTCHAR Yacute
ENCODING 221
SWIDTH 763 0
DWIDTH 15 0
BBX 14 18 1 0
BITMAP
00006000
00079000
00190000
00000000
E00001D0
34000340
1C000A00
0B002800
02807000
00D1D000
00774000
001E0000
000D0000
000D0000
000D0000
000D0000
000D0000
000D0000
ENDCHAR
STARTCHAR Thorn
ENCODING 222
SWIDTH 787 0
DWIDTH 16 0
BBX 13 14 2 0
BITMAP
90000000
90000000
BFFFE400
90005E00
90000340
90000280
90000240
90000340
90001E00
BFFFE400
90000000
90000000
90000000
90000000
ENDCHAR
STARTCHAR germandbls
ENCODING 223
SWIDTH 863 0
DWIDTH 17 0
BBX 14 14 2 0
BITMAP
06BFE400
2E405E00
70000280
D00001C0
C0000280
C0001B00
C0BFF900
C0001B80
C00000E0
C0000070
C0000070
C00000A0
C2900680
C16FF900
ENDCHAR
STARTCHAR agrave
ENCODING 224
SWIDTH 888 0
DWIDTH 18 0
BBX 15 18 1 0
BITMAP
00600000
002E0000
00018000
00000000
05BFF900
194006D0
00000070
00000024
00000028
0005ABF8
01BA5428
1E400028
74000028
A0000028
A0000028
B0000078
2D405BA8
06FFA428
ENDCHAR
STARTCHAR aacute
ENCODING 225
SWIDTH 888 0
DWIDTH 18 0
BBX 15 18 1 0
BITMAP
00001800
0001B400
00064000
00000000
05BFF900
194006D0
00000070
00000024
00000028
0005ABF8
01BA5428
1E400028
74000028
A0000028
A0000028
B0000078
2D405BA8
06FFA428
ENDCHAR
STARTCHAR acircumflex
ENCODING 226
SWIDTH 888 0
DWIDTH 18 0
BBX 15 18 1 0
BITMAP
00068000
00286400
00900900
00000000
05BFF900
194006D0
00000070
00000024
00000028
0005ABF8
01BA5428
1E400028
74000028
A0000028
A0000028
B0000078
2D405BA8
06FFA428
ENDCHAR
STARTCHAR atilde
ENCODING 227
SWIDTH 888 0
DWIDTH 18 0
BBX 15 17 1 0
BITMAP
002E4800
00A1B800
00000000
05BFF900
194006D0
00000070
00000024
00000028
0005ABF8
01BA5428
1E400028
74000028
A0000028
A0000028
B0000078
2D405BA8
06FFA428
ENDCHAR
STARTCHAR adieresis
ENCODING 228
SWIDTH 888 0
DWIDTH 18 0
BBX 15 16 1 0
BITMAP
00383400
00000000
05BFF900
194006D0
00000070
00000024
00000028
0005ABF8
01BA5428
1E400028
74000028
A0000028
A0000028
B0000078
2D405BA8
06FFA428
ENDCHAR
STARTCHAR aring
ENCODING 229
SWIDTH 888 0
DWIDTH 18 0
BBX 15 19 1 0
BITMAP
000BD000
00283400
00283400
000BD000
00000000
05BFF900
194006D0
00000070
00000024
00000028
0005ABF8
01BA5428
1E400028
74000028
A0000028
A0000028
B0000078
2D405BA8
06FFA428
ENDCHAR
STARTCHAR ae
ENCODING 230
SWIDTH 1551 0
DWIDTH 31 0
BBX 29 14 1 0
BITMAP
05BFF9001AFE8000
194006D0B501B400
0000007680000E00
0000002E00000340
0000002C00000280
0005ABF800000180
01BA542FFFFFFFC0
1E40002800000000
7400001C00000000
A000000D00000000
A000000E00000000
B00000B680000000
2D405B80B9001A00
06FFA40006FFA400
ENDCHAR
STARTCHAR ccedilla
ENCODING 231
SWIDTH 869 0
DWIDTH 17 0
BBX 15 18 1 -4
BITMAP
006BFE40
02E401A4
0E000008
28000000
70000000
A0000000
A0000000
A0000000
A0000000
70000000
28000000
0E000008
02E401A4
005BFE40
00018000
0002E000
00002400
000FE000
ENDCHAR
STARTCHAR egrave
ENCODING 232
SWIDTH 910 0
DWIDTH 18 0
BBX 16 18 1 0
BITMAP
00240000
001E4000
00019000
00000000
006FF900
029006D0
0E000038
2800000C
7000000A
A0000006
BFFFFFFF
A0000000
B0000000
74000000
28000000
0E000000
02E40168
006BFE90
ENDCHAR
STARTCHAR eacute
ENCODING 233
SWIDTH 910 0
DWIDTH 18 0
BBX 16 18 1 0
BITMAP
00001900
0000B800
00024000
00000000
006FF900
029006D0
0E000038
2800000C
7000000A
A0000006
BFFFFFFF
A0000000
B0000000
74000000
28000000
0E000000
02E40168
006BFE90
ENDCHAR
STARTCHAR ecircumflex
ENCODING 234
SWIDTH 910 0
DWIDTH 18 0
BBX 16 18 1 0
BITMAP
00029000
00192800
00600600
00000000
006FF900
029006D0
0E000038
2800000C
7000000A
A0000006
BFFFFFFF
A0000000
B0000000
74000000
28000000
0E000000
02E40168
006BFE90
ENDCHAR
STARTCHAR edieresis
ENCODING 235
SWIDTH 910 0
DWIDTH 18 0
BBX 16 16 1 0
BITMAP
002C2800
00000000
006FF900
029006D0
0E000038
2800000C
7000000A
A0000006
BFFFFFFF
A0000000
B0000000
74000000
28000000
0E000000
02E40168
006BFE90
ENDCHAR
STARTCHAR igrave
ENCODING 236
SWIDTH 287 0
DWIDTH 6 0
BBX 5 18 -1 0
BITMAP
6400
2E00
0180
0000
0240
0240
0240
0240
0240
0240
0240
0240
0240
0240
0240
0240
0240
0240
ENDCHAR
STARTCHAR iacute
ENCODING 237
SWIDTH 287 0
DWIDTH 6 0
BBX 4 18 2 0
BITMAP
06
6D
90
00
90
90
90
90
90
90
90
90
90
90
90
90
90
90
ENDCHAR
STARTCHAR icircumflex
ENCODING 238
SWIDTH 287 0
DWIDTH 6 0
BBX 8 18 -1 0
BITMAP
0680
2964
9009
0000
0240
0240
0240
0240
0240
0240
0240
0240
0240
0240
0240
0240
0240
0240
ENDCHAR
STARTCHAR idieresis
ENCODING 239
SWIDTH 287 0
DWIDTH 6 0
BBX 6 16 0 0
BITMAP
A0E0
0000
0900
0900
0900
0900
0900
0900
0900
0900
0900
0900
0900
0900
0900
0900
ENDCHAR
STARTCHAR eth
ENCODING 240
SWIDTH 910 0
DWIDTH 18 0
BBX 17 14 0 0
BITMAP
0BFFFA4000
090005B800
0900001E00
0900000740
0900000280
0900000180
BFFFC001C0
09000001C0
0900000180
0900000280
0900000340
0900000A00
090001B800
0BFFFE4000
ENDCHAR
STARTCHAR ntilde
ENCODING 241
SWIDTH 933 0
DWIDTH 19 0
BBX 15 17 2 0
BITMAP
00B92800
0186E000
00000000
901BFE40
91E401D0
AA400070
B4000034
A0000024
90000024
90000024
90000024
90000024
90000024
90000024
90000024
90000024
90000024
ENDCHAR
STARTCHAR ograve
ENCODING 242
SWIDTH 983 0
DWIDTH 20 0
BBX 18 18 1 0
BITMAP
0019000000
000B800000
0000600000
0000000000
006BFE4000
02D401B800
0E00000A00
2800000340
70000001C0
A0000000D0
A0000000D0
A0000000D0
A0000000D0
70000001C0
2800000340
0E00000A00
02D401B800
006BFE4000
ENDCHAR
STARTCHAR oacute
ENCODING 243
SWIDTH 983 0
DWIDTH 20 0
BBX 18 18 1 0
BITMAP
0000060000
00006D0000
0001900000
0000000000
006BFE4000
02D401B800
0E00000A00
2800000340
70000001C0
A0000000D0
A0000000D0
A0000000D0
A0000000D0
70000001C0
2800000340
0E00000A00
02D401B800
006BFE4000
ENDCHAR
STARTCHAR ocircumflex
ENCODING 244
SWIDTH 983 0
DWIDTH 20 0
BBX 18 18 1 0
BITMAP
0001A00000
000A190000
0024024000
0000000000
006BFE4000
02D401B800
0E00000A00
2800000340
70000001C0
A0000000D0
A0000000D0
A0000000D0
A0000000D0
70000001C0
2800000340
0E00000A00
02D401B800
006BFE4000
ENDCHAR
STARTCHAR otilde
ENCODING 245
SWIDTH 983 0
DWIDTH 20 0
BBX 18 17 1 0
BITMAP
000B924000
00186E0000
0000000000
006BFE4000
02D401B800
0E00000A00
2800000340
70000001C0
A0000000D0
A0000000D0
A0000000D0
A0000000D0
70000001C0
2800000340
0E00000A00
02D401B800
006BFE4000
ENDCHAR
STARTCHAR odieresis
ENCODING 246
SWIDTH 983 0
DWIDTH 20 0
BBX 18 16 1 0
BITMAP
000A0E0000
0000000000
006BFE4000
02D401B800
0E00000A00
2800000340
70000001C0
A0000000D0
A0000000D0
A0000000D0
A0000000D0
70000001C0
2800000340
0E00000A00
02D401B800
006BFE4000
ENDCHAR
STARTCHAR divide
ENCODING 247
SWIDTH 634 0
DWIDTH 13 0
BBX 10 7 1 3
BITMAP
007000
007000
000000
7FFFF0
000000
007000
007000
ENDCHAR
STARTCHAR oslash
ENCODING 248
SWIDTH 983 0
DWIDTH 20 0
BBX 18 18 1 -2
BITMAP
0000000D00
0000002800
006BFEB000
02D401F800
0E00028A00
2800060240
70000D01C0
A0002400D0
A0006000D0
A000C000D0
A0024000D0
700A0001C0
281C000340
0E34000A00
02F401B800
01EBFE4000
0340000000
0A00000000
ENDCHAR
STARTCHAR ugrave
ENCODING 249
SWIDTH 931 0
DWIDTH 19 0
BBX 15 18 2 0
BITMAP
00900000
006D0000
00064000
00000000
90000034
90000034
90000034
90000034
90000034
90000034
90000034
90000034
90000034
90000034
A00000B4
700007B4
29017934
06FE9034
ENDCHAR
STARTCHAR uacute
ENCODING 250
SWIDTH 931 0
DWIDTH 19 0
BBX 15 18 2 0
BITMAP
00002400
0002E400
000A0000
00000000
90000034
90000034
90000034
90000034
90000034
90000034
90000034
90000034
90000034
90000034
A00000B4
700007B4
29017934
06FE9034
ENDCHAR
STARTCHAR ucircumflex
ENCODING 251
SWIDTH 931 0
DWIDTH 19 0
BBX 15 18 2 0
BITMAP
000A4000
0064A000
01801800
00000000
90000034
90000034
90000034
90000034
90000034
90000034
90000034
90000034
90000034
90000034
A00000B4
700007B4
29017934
06FE9034
ENDCHAR
STARTCHAR udieresis
ENCODING 252
SWIDTH 931 0
DWIDTH 19 0
BBX 15 16 2 0
BITMAP
00707000
00000000
90000034
90000034
90000034
90000034
90000034
90000034
90000034
90000034
90000034
90000034
A00000B4
700007B4
29017934
06FE9034
ENDCHAR
STARTCHAR yacute
ENCODING 253
SWIDTH 911 0
DWIDTH 18 0
BBX 15 18 1 0
BITMAP
00001800
0001B400
00064000
00000000
7000001C
7000001C
7000001C
7000001C
3400002C
2400007C
1C0001DC
0B501A1C
01BFE41C
0000001C
00000038
000000B0
69001B80
1AFFE900
ENDCHAR
STARTCHAR thorn
ENCODING 254
SWIDTH 787 0
DWIDTH 16 0
BBX 13 14 2 0
BITMAP
90000000
90000000
BFFFE400
90005E00
90000340
90000280
90000240
90000340
90001E00
BFFFE400
90000000
90000000
90000000
90000000
ENDCHAR
STARTCHAR ydieresis
ENCODING 255
SWIDTH 911 0
DWIDTH 18 0
BBX 15 16 1 0
BITMAP
00283800
00000000
7000001C
7000001C
7000001C
7000001C
3400002C
2400007C
1C0001DC
0B501A1C
01BFE41C
0000001C
00000038
000000B0
69001B80
1AFFE900
ENDCHAR
STARTCHAR Amacron
ENCODING 256
SWIDTH 812 0
DWIDTH 16 0
BBX 16 16 0 0
BITMAP
002FF800
00000000
0002C000
0007A000
00097000
001C2800
00241C00
00700A00
00900700
01C00280
024001C0
07FFFFE0
0D000030
1C000028
3400000C
7000000A
ENDCHAR
STARTCHAR amacron
ENCODING 257
SWIDTH 888 0
DWIDTH 18 0
BBX 15 16 1 0
BITMAP
003FF400
00000000
05BFF900
194006D0
00000070
00000024
00000028
0005ABF8
01BA5428
1E400028
74000028
A0000028
A0000028
B0000078
2D405BA8
06FFA428
ENDCHAR
STARTCHAR Abreve
ENCODING 258
SWIDTH 812 0
DWIDTH 16 0
BBX 16 17 0 0
BITMAP
00341D00
001BE400
00000000
0002C000
0007A000
00097000
001C2800
00241C00
00700A00
00900700
01C00280
024001C0
07FFFFE0
0D000030
1C000028
3400000C
7000000A
ENDCHAR
STARTCHAR abreve
ENCODING 259
SWIDTH 888 0
DWIDTH 18 0
BBX 15 17 1 0
BITMAP
00741C00
001FE000
00000000
05BFF900
194006D0
00000070
00000024
00000028
0005ABF8
01BA5428
1E400028
74000028
A0000028
A0000028
B0000078
2D405BA8
06FFA428
ENDCHAR
STARTCHAR Aogonek
ENCODING 260
SWIDTH 812 0
DWIDTH 16 0
BBX 18 17 0 -3
BITMAP
0002C00000
0007A00000
0009700000
001C280000
00241C0000
00700A0000
0090070000
01C0028000
024001C000
07FFFFE000
0D00003000
1C00002800
3400000C00
7000000A00
0000001800
0000003400
0000002FD0
ENDCHAR
STARTCHAR aogonek
ENCODING 261
SWIDTH 888 0
DWIDTH 18 0
BBX 16 17 1 -3
BITMAP
05BFF900
194006D0
00000070
00000024
00000028
0005ABF8
01BA5428
1E400028
74000028
A0000028
A0000028
B00000B8
2D405BA8
06FFA428
00000060
000000C0
000000BF
ENDCHAR
STARTCHAR Cacute
ENCODING 262
SWIDTH 869 0
DWIDTH 17 0
BBX 15 18 1 0
BITMAP
00000600
00006D00
00019000
00000000
006BFE40
02E401A4
0E000008
28000000
70000000
A0000000
A0000000
A0000000
A0000000
70000000
28000000
0E000008
02E401A4
006BFE40
ENDCHAR
STARTCHAR cacute
ENCODING 263
SWIDTH 869 0
DWIDTH 17 0
BBX 15 18 1 0
BITMAP
00000600
00006D00
00019000
00000000
006BFE40
02E401A4
0E000008
28000000
70000000
A0000000
A0000000
A0000000
A0000000
70000000
28000000
0E000008
02E401A4
006BFE40
ENDCHAR
STARTCHAR Ccircumflex
ENCODING 264
SWIDTH 869 0
DWIDTH 17 0
BBX 15 18 1 0
BITMAP
0001A000
000A1900
00240240
00000000
006BFE40
02E401A4
0E000008
28000000
70000000
A0000000
A0000000
A0000000
A0000000
70000000
28000000
0E000008
02E401A4
006BFE40
ENDCHAR
STARTCHAR ccircumflex
ENCODING 265
SWIDTH 869 0
DWIDTH 17 0
BBX 15 18 1 0
BITMAP
0001A000
000A1900
00240240
00000000
006BFE40
02E401A4
0E000008
28000000
70000000
A0000000
A0000000
A0000000
A0000000
70000000
28000000
0E000008
02E401A4
006BFE40
ENDCHAR
STARTCHAR Cdotaccent
ENCODING 266
SWIDTH 869 0
DWIDTH 17 0
BBX 15 17 1 0
BITMAP
0000E000
0000E000
00000000
006BFE40
02E401A4
0E000008
28000000
70000000
A0000000
A0000000
A0000000
A0000000
70000000
28000000
0E000008
02E401A4
006BFE40
ENDCHAR
STARTCHAR cdotaccent
ENCODING 267
SWIDTH 869 0
DWIDTH 17 0
BBX 15 17 1 0
BITMAP
0000E000
0000E000
00000000
006BFE40
02E401A4
0E000008
28000000
70000000
A0000000
A0000000
A0000000
A0000000
70000000
28000000
0E000008
02E401A4
006BFE40
ENDCHAR
STARTCHAR Ccaron
ENCODING 268
SWIDTH 869 0
DWIDTH 17 0
BBX 15 18 1 0
BITMAP
00240240
000A5D00
0001A000
00000000
006BFE40
02E401A4
0E000008
28000000
70000000
A0000000
A0000000
A0000000
A0000000
70000000
28000000
0E000008
02E401A4
006BFE40
ENDCHAR
STARTCHAR ccaron
ENCODING 269
SWIDTH 869 0
DWIDTH 17 0
BBX 15 18 1 0
BITMAP
00240240
000A5D00
0001A000
00000000
006BFE40
02E401A4
0E000008
28000000
70000000
A0000000
A0000000
A0000000
A0000000
70000000
28000000
0E000008
02E401A4
006BFE40
ENDCHAR
STARTCHAR Dcaron
ENCODING 270
SWIDTH 910 0
DWIDTH 18 0
BBX 15 18 2 0
BITMAP
09009000
029A4000
00640000
00000000
BFFFE900
90001B80
900000E0
90000074
90000028
90000018
9000001C
9000001C
90000018
90000028
90000074
900000E0
90001B80
BFFFE900
ENDCHAR
STARTCHAR dcaron
ENCODING 271
SWIDTH 910 0
DWIDTH 18 0
BBX 15 18 2 0
BITMAP
09009000
029A4000
00680000
00000000
BFFFE900
90001B80
900000E0
90000074
90000028
90000018
9000001C
9000001C
90000018
90000028
90000074
900000E0
90001B80
BFFFE900
ENDCHAR
STARTCHAR Dcroat
ENCODING 272
SWIDTH 910 0
DWIDTH 18 0
BBX 17 14 0 0
BITMAP
0BFFFA4000
090005B800
0900001E00
0900000740
0900000280
0900000180
BFFFC001C0
09000001C0
0900000180
0900000280
0900000340
0900000A00
090001B800
0BFFFE4000
ENDCHAR
STARTCHAR dcroat
ENCODING 273
SWIDTH 910 0
DWIDTH 18 0
BBX 17 14 0 0
BITMAP
0BFFFA4000
090005B800
0900001E00
0900000740
0900000280
0900000180
BFFFC001C0
09000001C0
0900000180
0900000280
0900000340
0900000A00
090001B800
0BFFFE4000
ENDCHAR
STARTCHAR Emacron
ENCODING 274
SWIDTH 754 0
DWIDTH 15 0
BBX 12 16 2 0
BITMAP
03FF40
000000
BFFFFD
A00000
A00000
A00000
A00000
A00000
BFFFFC
A00000
A00000
A00000
A00000
A00000
A00000
BFFFFE
ENDCHAR
STARTCHAR emacron
ENCODING 275
SWIDTH 910 0
DWIDTH 18 0
BBX 16 16 1 0
BITMAP
002FF800
00000000
006FF900
029006D0
0E000038
2800000C
7000000A
A0000006
BFFFFFFF
A0000000
B0000000
74000000
28000000
0E000000
02E40168
006BFE90
ENDCHAR
STARTCHAR Ebreve
ENCODING 276
SWIDTH 754 0
DWIDTH 15 0
BBX 12 17 2 0
BITMAP
0741C0
01FE00
000000
BFFFFD
A00000
A00000
A00000
A00000
A00000
BFFFFC
A00000
A00000
A00000
A00000
A00000
A00000
BFFFFE
ENDCHAR
STARTCHAR ebreve
ENCODING 277
SWIDTH 910 0
DWIDTH 18 0
BBX 16 17 1 0
BITMAP
00341D00
001BE400
00000000
006FF900
029006D0
0E000038
2800000C
7000000A
A0000006
BFFFFFFF
A0000000
B0000000
74000000
28000000
0E000000
02E40168
006BFE90
ENDCHAR
STARTCHAR Edotaccent
ENCODING 278
SWIDTH 754 0
DWIDTH 15 0
BBX 12 17 2 0
BITMAP
003800
003800
000000
BFFFFD
A00000
A00000
A00000
A00000
A00000
BFFFFC
A00000
A00000
A00000
A00000
A00000
A00000
BFFFFE
ENDCHAR
STARTCHAR edotaccent
ENCODING 279
SWIDTH 910 0
DWIDTH 18 0
BBX 16 17 1 0
BITMAP
0002C000
0002C000
00000000
006FF900
029006D0
0E000038
2800000C
7000000A
A0000006
BFFFFFFF
A0000000
B0000000
74000000
28000000
0E000000
02E40168
006BFE90
ENDCHAR
STARTCHAR Eogonek
ENCODING 280
SWIDTH 754 0
DWIDTH 15 0
BBX 12 17 2 -3
BITMAP
BFFFFD
A00000
A00000
A00000
A00000
A00000
BFFFFC
A00000
A00000
A00000
A00000
A00000
A00000
BFFFFE
000090
000280
0001FE
ENDCHAR
STARTCHAR eogonek
ENCODING 281
SWIDTH 910 0
DWIDTH 18 0
BBX 16 17 1 -3
BITMAP
006FF900
029006D0
0E000038
2800000C
7000000A
A0000006
BFFFFFFF
A0000000
B0000000
74000000
28000000
0E000000
02E40168
006BFEE0
00000180
00000280
000001BE
ENDCHAR
STARTCHAR Ecaron
ENCODING 282
SWIDTH 754 0
DWIDTH 15 0
BBX 12 18 2 0
BITMAP
090090
029740
006800
000000
BFFFFD
A00000
A00000
A00000
A00000
A00000
BFFFFC
A00000
A00000
A00000
A00000
A00000
A00000
BFFFFE
ENDCHAR
STARTCHAR ecaron
ENCODING 283
SWIDTH 910 0
DWIDTH 18 0
BBX 16 18 1 0
BITMAP
00600600
001D6800
00029000
00000000
006FF900
029006D0
0E000038
2800000C
7000000A
A0000006
BFFFFFFF
A0000000
B0000000
74000000
28000000
0E000000
02E40168
006BFE90
ENDCHAR
STARTCHAR Gcircumflex
ENCODING 284
SWIDTH 910 0
DWIDTH 18 0
BBX 16 18 1 0
BITMAP
0000A000
000A5900
00240240
00000000
001BFE40
02E401B4
0A000009
28000000
70000000
A0000000
A0000000
A0003FFE
A000000A
7000000A
2800000A
0E00000A
02E4005E
002BFFA4
ENDCHAR
STARTCHAR gcircumflex
ENCODING 285
SWIDTH 910 0
DWIDTH 18 0
BBX 16 18 1 0
BITMAP
0000A000
000A5900
00240240
00000000
001BFE40
02E401B4
0A000009
28000000
70000000
A0000000
A0000000
A0003FFE
A000000A
7000000A
2800000A
0E00000A
02E4005E
002BFFA4
ENDCHAR
STARTCHAR Gbreve
ENCODING 286
SWIDTH 910 0
DWIDTH 18 0
BBX 16 17 1 0
BITMAP
001D0700
0006F900
00000000
001BFE40
02E401B4
0A000009
28000000
70000000
A0000000
A0000000
A0003FFE
A000000A
7000000A
2800000A
0E00000A
02E4005E
002BFFA4
ENDCHAR
STARTCHAR gbreve
ENCODING 287
SWIDTH 910 0
DWIDTH 18 0
BBX 16 17 1 0
BITMAP
001D0700
0006F900
00000000
001BFE40
02E401B4
0A000009
28000000
70000000
A0000000
A0000000
A0003FFE
A000000A
7000000A
2800000A
0E00000A
02E4005E
002BFFA4
ENDCHAR
STARTCHAR Gdotaccent
ENCODING 288
SWIDTH 910 0
DWIDTH 18 0
BBX 16 17 1 0
BITMAP
0000E000
0000E000
00000000
001BFE40
02E401B4
0A000009
28000000
70000000
A0000000
A0000000
A0003FFE
A000000A
7000000A
2800000A
0E00000A
02E4005E
002BFFA4
ENDCHAR
STARTCHAR gdotaccent
ENCODING 289
SWIDTH 910 0
DWIDTH 18 0
BBX 16 17 1 0
BITMAP
0000E000
0000E000
00000000
001BFE40
02E401B4
0A000009
28000000
70000000
A0000000
A0000000
A0003FFE
A000000A
7000000A
2800000A
0E00000A
02E4005E
002BFFA4
ENDCHAR
STARTCHAR Gcommaaccent
ENCODING 290
SWIDTH 910 0
DWIDTH 18 0
BBX 16 18 1 -4
BITMAP
001BFE40
02E401B4
0A000009
28000000
70000000
A0000000
A0000000
A0003FFE
A000000A
7000000A
2800000A
0E00000A
02E4005E
002BFFA4
00000000
0000B000
0000A000
00009000
ENDCHAR
STARTCHAR gcommaaccent
ENCODING 291
SWIDTH 910 0
DWIDTH 18 0
BBX 16 18 1 -4
BITMAP
001BFE40
02E401B4
0A000009
28000000
70000000
A0000000
A0000000
A0003FFE
A000000A
7000000A
2800000A
0E00000A
02E4005E
002BFFA4
00000000
0000B000
0000A000
00009000
ENDCHAR
STARTCHAR Hcircumflex
ENCODING 292
SWIDTH 949 0
DWIDTH 19 0
BBX 15 18 2 0
BITMAP
00074000
0068A400
00800800
00000000
90000028
90000028
90000028
90000028
90000028
90000028
BFFFFFF8
90000028
90000028
90000028
90000028
90000028
90000028
90000028
ENDCHAR
STARTCHAR hcircumflex
ENCODING 293
SWIDTH 949 0
DWIDTH 19 0
BBX 15 18 2 0
BITMAP
00074000
0068A400
00800800
00000000
90000028
90000028
90000028
90000028
90000028
90000028
BFFFFFF8
90000028
90000028
90000028
90000028
90000028
90000028
90000028
ENDCHAR
STARTCHAR Hbar
ENCODING 294
SWIDTH 949 0
DWIDTH 19 0
BBX 19 14 0 0
BITMAP
0900000280
0900000280
0900000280
7FFFFFFFF4
0900000280
0900000280
0BFFFFFF80
0900000280
0900000280
0900000280
0900000280
0900000280
0900000280
0900000280
ENDCHAR
STARTCHAR hbar
ENCODING 295
SWIDTH 949 0
DWIDTH 19 0
BBX 19 14 0 0
BITMAP
0900000280
0900000280
0900000280
7FFFFFFFF4
0900000280
0900000280
0BFFFFFF80
0900000280
0900000280
0900000280
0900000280
0900000280
0900000280
0900000280
ENDCHAR
STARTCHAR Itilde
ENCODING 296
SWIDTH 287 0
DWIDTH 6 0
BBX 8 17 -1 0
BITMAP
2E49
61B8
0000
0240
0240
0240
0240
0240
0240
0240
0240
0240
0240
0240
0240
0240
0240
ENDCHAR
STARTCHAR itilde
ENCODING 297
SWIDTH 287 0
DWIDTH 6 0
BBX 8 17 -1 0
BITMAP
2E49
61B8
0000
0240
0240
0240
0240
0240
0240
0240
0240
0240
0240
0240
0240
0240
0240
ENDCHAR
STARTCHAR Imacron
ENCODING 298
SWIDTH 287 0
DWIDTH 6 0
BBX 6 16 0 0
BITMAP
BFE0
0000
0900
0900
0900
0900
0900
0900
0900
0900
0900
0900
0900
0900
0900
0900
ENDCHAR
STARTCHAR imacron
ENCODING 299
SWIDTH 287 0
DWIDTH 6 0
BBX 6 16 0 0
BITMAP
BFE0
0000
0900
0900
0900
0900
0900
0900
0900
0900
0900
0900
0900
0900
0900
0900
ENDCHAR
STARTCHAR Ibreve
ENCODING 300
SWIDTH 287 0
DWIDTH 6 0
BBX 7 17 -1 0
BITMAP
741C
1BE4
0000
0240
0240
0240
0240
0240
0240
0240
0240
0240
0240
0240
0240
0240
0240
ENDCHAR
STARTCHAR ibreve
ENCODING 301
SWIDTH 287 0
DWIDTH 6 0
BBX 7 17 -1 0
BITMAP
741C
1BE4
0000
0240
0240
0240
0240
0240
0240
0240
0240
0240
0240
0240
0240
0240
0240
ENDCHAR
STARTCHAR Iogonek
ENCODING 302
SWIDTH 287 0
DWIDTH 6 0
BBX 5 17 0 -3
BITMAP
0900
0900
0900
0900
0900
0900
0900
0900
0900
0900
0900
0900
0900
0900
2400
6000
6F80
ENDCHAR
STARTCHAR iogonek
ENCODING 303
SWIDTH 287 0
DWIDTH 6 0
BBX 5 17 0 -3
BITMAP
0900
0900
0900
0900
0900
0900
0900
0900
0900
0900
0900
0900
0900
0900
2400
6000
6F80
ENDCHAR
STARTCHAR Idotaccent
ENCODING 304
SWIDTH 287 0
DWIDTH 6 0
BBX 2 17 2 0
BITMAP
E0
E0
00
90
90
90
90
90
90
90
90
90
90
90
90
90
90
ENDCHAR
STARTCHAR dotlessi
ENCODING 305
SWIDTH 287 0
DWIDTH 6 0
BBX 2 14 2 0
BITMAP
90
90
90
90
90
90
90
90
90
90
90
90
90
90
ENDCHAR
STARTCHAR IJ
ENCODING 306
SWIDTH 877 0
DWIDTH 18 0
BBX 14 14 2 0
BITMAP
900000D0
900000D0
900000D0
900000D0
900000D0
900000D0
900000D0
900000D0
900000D0
900000D0
900000D0
900001C0
91901B40
906FF800
ENDCHAR
STARTCHAR ij
ENCODING 307
SWIDTH 877 0
DWIDTH 18 0
BBX 14 14 2 0
BITMAP
900000D0
900000D0
900000D0
900000D0
900000D0
900000D0
900000D0
900000D0
900000D0
900000D0
900000D0
900001C0
91901B40
906FF800
ENDCHAR
STARTCHAR Jcircumflex
ENCODING 308
SWIDTH 590 0
DWIDTH 12 0
BBX 13 18 0 0
BITMAP
0000A000
00065900
00240180
00000000
0000A000
0000A000
0000A000
0000A000
0000A000
0000A000
0000A000
0000A000
0000A000
0000A000
00009000
0001D000
94074000
6BF90000
ENDCHAR
STARTCHAR jcircumflex
ENCODING 309
SWIDTH 590 0
DWIDTH 12 0
BBX 13 18 0 0
BITMAP
0000A000
00065900
00240180
00000000
0000A000
0000A000
0000A000
0000A000
0000A000
0000A000
0000A000
0000A000
0000A000
0000A000
00009000
0001D000
94074000
6BF90000
ENDCHAR
STARTCHAR Kcommaaccent
ENCODING 310
SWIDTH 806 0
DWIDTH 16 0
BBX 14 18 2 -4
BITMAP
A0000740
A0002900
A001E000
A00B4000
A0780000
A2D00000
AE000000
A7400000
A1E00000
A02D0000
A0078000
A000B400
A0001E00
A00006D0
00000000
00280000
00280000
00240000
ENDCHAR
STARTCHAR kcommaaccent
ENCODING 311
SWIDTH 867 0
DWIDTH 17 0
BBX 14 18 2 -4
BITMAP
900000D0
900001C0
90000340
90000A00
90007800
901A9000
BFFE0000
9016E000
90002D00
90000740
900001C0
900000A0
90000070
90000070
00000000
000D0000
000C0000
001C0000
ENDCHAR
STARTCHAR kgreenlandic
ENCODING 312
SWIDTH 867 0
DWIDTH 17 0
BBX 14 14 2 0
BITMAP
900000D0
900001C0
90000340
90000A00
90007800
901A9000
BFFE0000
9016E000
90002D00
90000740
900001C0
900000A0
90000070
90000070
ENDCHAR
STARTCHAR Lacute
ENCODING 313
SWIDTH 701 0
DWIDTH 14 0
BBX 12 18 2 0
BITMAP
060000
6D0000
900000
000000
900000
900000
900000
900000
900000
900000
900000
900000
900000
900000
900000
900000
900000
BFFFFD
ENDCHAR
STARTCHAR lacute
ENCODING 314
SWIDTH 709 0
DWIDTH 14 0
BBX 12 18 2 0
BITMAP
060000
6D0000
900000
000000
900000
900000
900000
900000
900000
900000
900000
900000
900000
900000
A00000
600000
390000
0AFFFF
ENDCHAR
STARTCHAR Lcommaaccent
ENCODING 315
SWIDTH 701 0
DWIDTH 14 0
BBX 12 18 2 -4
BITMAP
900000
900000
900000
900000
900000
900000
900000
900000
900000
900000
900000
900000
900000
BFFFFD
000000
002800
003400
003000
ENDCHAR
STARTCHAR lcommaaccent
ENCODING 316
SWIDTH 709 0
DWIDTH 14 0
BBX 12 18 2 -4
BITMAP
900000
900000
900000
900000
900000
900000
900000
900000
900000
900000
A00000
600000
390000
0AFFFF
000000
001C00
001800
002400
ENDCHAR
STARTCHAR Lcaron
ENCODING 317
SWIDTH 701 0
DWIDTH 14 0
BBX 12 14 2 0
BITMAP
900280
900340
900300
900600
900000
900000
900000
900000
900000
900000
900000
900000
900000
BFFFFD
ENDCHAR
STARTCHAR lcaron
ENCODING 318
SWIDTH 709 0
DWIDTH 14 0
BBX 12 14 2 0
BITMAP
900280
900340
900300
900600
900000
900000
900000
900000
900000
900000
A00000
600000
390000
0AFFFF
ENDCHAR
STARTCHAR Ldot
ENCODING 319
SWIDTH 701 0
DWIDTH 14 0
BBX 12 14 2 0
BITMAP
900000
900000
900000
900000
900000
900000
900380
900380
900000
900000
900000
900000
900000
BFFFFD
ENDCHAR
STARTCHAR ldotaccent
ENCODING 320
SWIDTH 709 0
DWIDTH 14 0
BBX 12 14 2 0
BITMAP
900000
900000
900000
900000
900000
900000
9002C0
9002C0
900000
900000
A00000
600000
390000
0AFFFF
ENDCHAR
STARTCHAR Lslash
ENCODING 321
SWIDTH 701 0
DWIDTH 14 0
BBX 14 14 0 0
BITMAP
09000000
09000000
09000000
09000000
09000000
09000000
0A690000
1FA40000
AE000000
09000000
09000000
09000000
09000000
0BFFFFD0
ENDCHAR
STARTCHAR lslash
ENCODING 322
SWIDTH 709 0
DWIDTH 14 0
BBX 14 14 0 0
BITMAP
09000000
09000000
09000000
09000000
09000000
09000000
0A690000
1FA40000
AE000000
09000000
0A000000
0A000000
03900000
00BFFFF0
ENDCHAR
STARTCHAR Nacute
ENCODING 323
SWIDTH 936 0
DWIDTH 19 0
BBX 15 18 2 0
BITMAP
00002800
0002E400
000A0000
00000000
B0000024
BC000024
9B000024
92800024
90A00024
90280024
900E0024
90038024
9000E024
90007824
90001D24
90000764
900001F4
90000074
ENDCHAR
STARTCHAR nacute
ENCODING 324
SWIDTH 933 0
DWIDTH 19 0
BBX 15 18 2 0
BITMAP
00006400
0002E000
00090000
00000000
901BFE40
91E401D0
AA400070
B4000034
A0000024
90000024
90000024
90000024
90000024
90000024
90000024
90000024
90000024
90000024
ENDCHAR
STARTCHAR Ncommaaccent
ENCODING 325
SWIDTH 936 0
DWIDTH 19 0
BBX 15 18 2 -4
BITMAP
B0000024
BC000024
9B000024
92800024
90A00024
90280024
900E0024
90038024
9000E024
90007824
90001D24
90000764
900001F4
90000074
00000000
00070000
00070000
00060000
ENDCHAR
STARTCHAR ncommaaccent
ENCODING 326
SWIDTH 933 0
DWIDTH 19 0
BBX 15 18 2 -4
BITMAP
901BFE40
91E401D0
AA400070
B4000034
A0000024
90000024
90000024
90000024
90000024
90000024
90000024
90000024
90000024
90000024
00000000
00070000
00060000
000A0000
ENDCHAR
STARTCHAR Ncaron
ENCODING 327
SWIDTH 936 0
DWIDTH 19 0
BBX 15 18 2 0
BITMAP
01801800
0069A000
00074000
00000000
B0000024
BC000024
9B000024
92800024
90A00024
90280024
900E0024
90038024
9000E024
90007824
90001D24
90000764
900001F4
90000074
ENDCHAR
STARTCHAR ncaron
ENCODING 328
SWIDTH 933 0
DWIDTH 19 0
BBX 15 18 2 0
BITMAP
01801800
0075A000
000A4000
00000000
901BFE40
91E401D0
AA400070
B4000034
A0000024
90000024
90000024
90000024
90000024
90000024
90000024
90000024
90000024
90000024
ENDCHAR
STARTCHAR napostrophe
ENCODING 329
SWIDTH 1025 0
DWIDTH 21 0
BBX 19 14 0 0
BITMAP
70D01BFE00
A0D1E406D0
90EA000070
C0F4000034
00D0000034
00D0000034
00D0000034
00D0000034
00D0000034
00D0000034
00D0000034
00D0000034
00D0000034
00D0000034
ENDCHAR
STARTCHAR Eng
ENCODING 330
SWIDTH 936 0
DWIDTH 19 0
BBX 15 14 2 0
BITMAP
B4000024
AD000024
92800024
90A00024
901D0024
90074024
9000A024
90002824
90000624
900001F4
90000034
90000070
901901D0
9006FE40
ENDCHAR
STARTCHAR eng
ENCODING 331
SWIDTH 933 0
DWIDTH 19 0
BBX 15 14 2 0
BITMAP
901BFE40
91E401D0
AE000070
B4000034
90000024
90000024
90000024
90000024
90000024
90000024
90000034
90000070
900901E0
9006FE40
ENDCHAR
STARTCHAR Omacron
ENCODING 332
SWIDTH 983 0
DWIDTH 20 0
BBX 18 16 1 0
BITMAP
000BFE0000
0000000000
006BFE4000
02D401B800
0E00000A00
2800000340
70000001C0
A0000000D0
A0000000D0
A0000000D0
A0000000D0
70000001C0
2800000340
0E00000A00
02D401B800
006BFE4000
ENDCHAR
STARTCHAR omacron
ENCODING 333
SWIDTH 983 0
DWIDTH 20 0
BBX 18 16 1 0
BITMAP
000BFE0000
0000000000
006BFE4000
02D401B800
0E00000A00
2800000340
70000001C0
A0000000D0
A0000000D0
A0000000D0
A0000000D0
70000001C0
2800000340
0E00000A00
02D401B800
006BFE4000
ENDCHAR
STARTCHAR Obreve
ENCODING 334
SWIDTH 983 0
DWIDTH 20 0
BBX 18 17 1 0
BITMAP
001D070000
0006F90000
0000000000
006BFE4000
02D401B800
0E00000A00
2800000340
70000001C0
A0000000D0
A0000000D0
A0000000D0
A0000000D0
70000001C0
2800000340
0E00000A00
02D401B800
006BFE4000
ENDCHAR
STARTCHAR obreve
ENCODING 335
SWIDTH 983 0
DWIDTH 20 0
BBX 18 17 1 0
BITMAP
001D070000
0006F90000
0000000000
006BFE4000
02D401B800
0E00000A00
2800000340
70000001C0
A0000000D0
A0000000D0
A0000000D0
A0000000D0
70000001C0
2800000340
0E00000A00
02D401B800
006BFE4000
ENDCHAR
STARTCHAR Ohungarumlaut
ENCODING 336
SWIDTH 983 0
DWIDTH 20 0
BBX 18 18 1 0
BITMAP
0000918000
00038B4000
0009180000
0000000000
006BFE4000
02D401B800
0E00000A00
2800000340
70000001C0
A0000000D0
A0000000D0
A0000000D0
A0000000D0
70000001C0
2800000340
0E00000A00
02D401B800
006BFE4000
ENDCHAR
STARTCHAR ohungarumlaut
ENCODING 337
SWIDTH 983 0
DWIDTH 20 0
BBX 18 18 1 0
BITMAP
0000918000
00038B4000
0009180000
0000000000
006BFE4000
02D401B800
0E00000A00
2800000340
70000001C0
A0000000D0
A0000000D0
A0000000D0
A0000000D0
70000001C0
2800000340
0E00000A00
02D401B800
006BFE4000
ENDCHAR
STARTCHAR OE
ENCODING 338
SWIDTH 1338 0
DWIDTH 27 0
BBX 25 14 1 0
BITMAP
006BFFFFFFFF00
02E40174000000
0E000034000000
28000034000000
70000034000000
A0000034000000
A000003FFFFE00
A0000034000000
A0000034000000
70000034000000
28000034000000
0E000034000000
02D40074000000
006BFFFFFFFF40
ENDCHAR
STARTCHAR oe
ENCODING 339
SWIDTH 1688 0
DWIDTH 34 0
BBX 32 14 1 0
BITMAP
006BFE40006FF900
02D401B8029006D0
0E00000A1D000074
28000003B400001C
70000001E000000D
A0000000D000000A
A0000000FFFFFFFE
A0000000D0000000
A0000000E0000000
70000001F0000000
28000003B8000000
0E00000A1E000000
02D401B802E40168
006BFE40006BFE90
ENDCHAR
STARTCHAR Racute
ENCODING 340
SWIDTH 833 0
DWIDTH 17 0
BBX 14 18 2 0
BITMAP
00018000
001E4000
00640000
00000000
BFFFE400
90001A00
90000340
90000280
90000280
90000340
90001A00
BFFFE400
9000A000
90002800
90000D00
90000700
90000280
900000E0
ENDCHAR
STARTCHAR racute
ENCODING 341
SWIDTH 609 0
DWIDTH 12 0
BBX 11 18 2 0
BITMAP
000600
007900
019000
000000
901BF4
91E400
AA0000
B40000
A00000
900000
900000
900000
900000
900000
900000
900000
900000
900000
ENDCHAR
STARTCHAR Rcommaaccent
ENCODING 342
SWIDTH 833 0
DWIDTH 17 0
BBX 14 18 2 -4
BITMAP
BFFFE400
90001A00
90000340
90000280
90000280
90000340
90001A00
BFFFE400
9000A000
90002800
90000D00
90000700
90000280
900000E0
00000000
001C0000
00180000
00280000
ENDCHAR
STARTCHAR rcommaaccent
ENCODING 343
SWIDTH 609 0
DWIDTH 12 0
BBX 11 18 2 -4
BITMAP
901BF4
91E400
AA0000
B40000
A00000
900000
900000
900000
900000
900000
900000
900000
900000
900000
000000
A00000
900000
C00000
ENDCHAR
STARTCHAR Rcaron
ENCODING 344
SWIDTH 833 0
DWIDTH 17 0
BBX 14 18 2 0
BITMAP
09009000
029A4000
00740000
00000000
BFFFE400
90001A00
90000340
90000280
90000280
90000340
90001A00
BFFFE400
9000A000
90002800
90000D00
90000700
90000280
900000E0
ENDCHAR
STARTCHAR rcaron
ENCODING 345
SWIDTH 609 0
DWIDTH 12 0
BBX 11 18 2 0
BITMAP
240240
0A6900
019000
000000
901BF4
91E400
AA0000
B40000
A00000
900000
900000
900000
900000
900000
900000
900000
900000
900000
ENDCHAR
STARTCHAR Sacute
ENCODING 346
SWIDTH 787 0
DWIDTH 16 0
BBX 14 18 1 0
BITMAP
00006000
0006D000
00190000
00000000
06BFE500
1D401600
30000000
70000000
34000000
1E400000
01BE4000
0006B800
00000B40
000001C0
000000D0
000001C0
65001B40
16FFE400
ENDCHAR
STARTCHAR sacute
ENCODING 347
SWIDTH 787 0
DWIDTH 16 0
BBX 14 18 1 0
BITMAP
00006000
0006D000
00190000
00000000
06BFE500
1D401600
30000000
70000000
34000000
1E400000
01BE4000
0006B800
00000B40
000001C0
000000D0
000001C0
65001B40
16FFE400
ENDCHAR
STARTCHAR Scircumflex
ENCODING 348
SWIDTH 787 0
DWIDTH 16 0
BBX 14 18 1 0
BITMAP
001A0000
00A19000
02402400
00000000
06BFE500
1D401600
30000000
70000000
34000000
1E400000
01BE4000
0006B800
00000B40
000001C0
000000D0
000001C0
65001B40
16FFE400
ENDCHAR
STARTCHAR scircumflex
ENCODING 349
SWIDTH 787 0
DWIDTH 16 0
BBX 14 18 1 0
BITMAP
001A0000
00A19000
02402400
00000000
06BFE500
1D401600
30000000
70000000
34000000
1E400000
01BE4000
0006B800
00000B40
000001C0
000000D0
000001C0
65001B40
16FFE400
ENDCHAR
STARTCHAR Scedilla
ENCODING 350
SWIDTH 787 0
DWIDTH 16 0
BBX 14 18 1 -4
BITMAP
06BFE500
1D401600
30000000
70000000
34000000
1E400000
01BE4000
0006F800
00000B40
000001C0
000000D0
000001C0
65001B40
1AFFE400
00080000
000F8000
0001C000
007F8000
ENDCHAR
STARTCHAR scedilla
ENCODING 351
SWIDTH 787 0
DWIDTH 16 0
BBX 14 18 1 -4
BITMAP
06BFE500
1D401600
30000000
70000000
34000000
1E400000
01BE4000
0006F800
00000B40
000001C0
000000D0
000001C0
65001B40
1AFFE400
00080000
000F8000
0001C000
007F8000
ENDCHAR
STARTCHAR Scaron
ENCODING 352
SWIDTH 787 0
DWIDTH 16 0
BBX 14 18 1 0
BITMAP
02402400
00A5D000
001A0000
00000000
06BFE500
1D401600
30000000
70000000
34000000
1E400000
01BE4000
0006B800
00000B40
000001C0
000000D0
000001C0
65001B40
16FFE400
ENDCHAR
STARTCHAR scaron
ENCODING 353
SWIDTH 787 0
DWIDTH 16 0
BBX 14 18 1 0
BITMAP
02402400
00A5D000
001A0000
00000000
06BFE500
1D401600
30000000
70000000
34000000
1E400000
01BE4000
0006B800
00000B40
000001C0
000000D0
000001C0
65001B40
16FFE400
ENDCHAR
STARTCHAR Tcommaaccent
ENCODING 354
SWIDTH 708 0
DWIDTH 14 0
BBX 14 18 0 -4
BITMAP
BFFFFFE0
000A0000
000A0000
000A0000
000A0000
000A0000
000A0000
000A0000
000A0000
000A0000
000A0000
000A0000
000A0000
000A0000
00000000
000A0000
000A0000
00090000
ENDCHAR
STARTCHAR tcommaaccent
ENCODING 355
SWIDTH 708 0
DWIDTH 14 0
BBX 14 18 0 -4
BITMAP
BFFFFFE0
000A0000
000A0000
000A0000
000A0000
000A0000
000A0000
000A0000
000A0000
000A0000
000A0000
000A0000
000A0000
000A0000
00000000
000A0000
000A0000
00090000
ENDCHAR
STARTCHAR Tcaron
ENCODING 356
SWIDTH 708 0
DWIDTH 14 0
BBX 14 18 0 0
BITMAP
01801800
0075A000
000A0000
00000000
BFFFFFE0
000A0000
000A0000
000A0000
000A0000
000A0000
000A0000
000A0000
000A0000
000A0000
000A0000
000A0000
000A0000
000A0000
ENDCHAR
STARTCHAR tcaron
ENCODING 357
SWIDTH 708 0
DWIDTH 14 0
BBX 14 18 0 0
BITMAP
01801800
0075A000
000A0000
00000000
BFFFFFE0
000A0000
000A0000
000A0000
000A0000
000A0000
000A0000
000A0000
000A0000
000A0000
000A0000
000A0000
000A0000
000A0000
ENDCHAR
STARTCHAR Tbar
ENCODING 358
SWIDTH 708 0
DWIDTH 14 0
BBX 14 14 0 0
BITMAP
BFFFFFE0
000A0000
000A0000
000A0000
000A0000
1FFFFF40
000A0000
000A0000
000A0000
000A0000
000A0000
000A0000
000A0000
000A0000
ENDCHAR
STARTCHAR tbar
ENCODING 359
SWIDTH 708 0
DWIDTH 14 0
BBX 14 14 0 0
BITMAP
BFFFFFE0
000A0000
000A0000
000A0000
000A0000
1FFFFF40
000A0000
000A0000
000A0000
000A0000
000A0000
000A0000
000A0000
000A0000
ENDCHAR
STARTCHAR Utilde
ENCODING 360
SWIDTH 891 0
DWIDTH 18 0
BBX 14 17 2 0
BITMAP
00B92400
0186E000
00000000
D00000A0
D00000A0
D00000A0
D00000A0
D00000A0
D00000A0
D00000A0
D00000A0
D00000A0
D00000A0
A00000A0
740001C0
1E401B40
02BFE400
ENDCHAR
STARTCHAR utilde
ENCODING 361
SWIDTH 931 0
DWIDTH 19 0
BBX 15 17 2 0
BITMAP
00791800
00C6F400
00000000
90000034
90000034
90000034
90000034
90000034
90000034
90000034
90000034
90000034
90000034
A00000B4
700007B4
29017934
06FE9034
ENDCHAR
STARTCHAR Umacron
ENCODING 362
SWIDTH 891 0
DWIDTH 18 0
BBX 14 16 2 0
BITMAP
00BFE000
00000000
D00000A0
D00000A0
D00000A0
D00000A0
D00000A0
D00000A0
D00000A0
D00000A0
D00000A0
D00000A0
A00000A0
740001C0
1E401B40
02BFE400
ENDCHAR
STARTCHAR umacron
ENCODING 363
SWIDTH 931 0
DWIDTH 19 0
BBX 15 16 2 0
BITMAP
007FF000
00000000
90000034
90000034
90000034
90000034
90000034
90000034
90000034
90000034
90000034
90000034
A00000B4
700007B4
29017934
06FE9034
ENDCHAR
STARTCHAR Ubreve
ENCODING 364
SWIDTH 891 0
DWIDTH 18 0
BBX 14 17 2 0
BITMAP
01D07000
006F9000
00000000
D00000A0
D00000A0
D00000A0
D00000A0
D00000A0
D00000A0
D00000A0
D00000A0
D00000A0
D00000A0
A00000A0
740001C0
1E401B40
02BFE400
ENDCHAR
STARTCHAR ubreve
ENCODING 365
SWIDTH 931 0
DWIDTH 19 0
BBX 15 17 2 0
BITMAP
00E06400
002FD000
00000000
90000034
90000034
90000034
90000034
90000034
90000034
90000034
90000034
90000034
90000034
A00000B4
700007B4
29017934
06FE9034
ENDCHAR
STARTCHAR Uring
ENCODING 366
SWIDTH 891 0
DWIDTH 18 0
BBX 14 19 2 0
BITMAP
002F8000
00A09000
00A09000
002F8000
00000000
D00000A0
D00000A0
D00000A0
D00000A0
D00000A0
D00000A0
D00000A0
D00000A0
D00000A0
D00000A0
A00000A0
740001C0
1E401B40
02BFE400
ENDCHAR
STARTCHAR uring
ENCODING 367
SWIDTH 931 0
DWIDTH 19 0
BBX 15 19 2 0
BITMAP
001F8000
00706000
00706000
001F8000
00000000
90000034
90000034
90000034
90000034
90000034
90000034
90000034
90000034
90000034
90000034
A00000B4
700007B4
29017934
06FE9034
ENDCHAR
STARTCHAR Uhungarumlaut
ENCODING 368
SWIDTH 891 0
DWIDTH 18 0
BBX 14 18 2 0
BITMAP
00091800
00287400
00908000
00000000
D00000A0
D00000A0
D00000A0
D00000A0
D00000A0
D00000A0
D00000A0
D00000A0
D00000A0
D00000A0
A00000A0
740001C0
1E401B40
02BFE400
ENDCHAR
STARTCHAR uhungarumlaut
ENCODING 369
SWIDTH 931 0
DWIDTH 19 0
BBX 15 18 2 0
BITMAP
00060800
002D7800
00609000
00000000
90000034
90000034
90000034
90000034
90000034
90000034
90000034
90000034
90000034
90000034
A00000B4
700007B4
29017934
06FE9034
ENDCHAR
STARTCHAR Uogonek
ENCODING 370
SWIDTH 891 0
DWIDTH 18 0
BBX 14 17 2 -3
BITMAP
D00000A0
D00000A0
D00000A0
D00000A0
D00000A0
D00000A0
D00000A0
D00000A0
D00000A0
D00000A0
A00000A0
740001C0
1E401B40
02BFE400
00180000
00340000
001FD000
ENDCHAR
STARTCHAR uogonek
ENCODING 371
SWIDTH 931 0
DWIDTH 19 0
BBX 16 17 2 -3
BITMAP
90000034
90000034
90000034
90000034
90000034
90000034
90000034
90000034
90000034
90000034
A00000B4
700007B4
29017934
06FE9034
00000090
00000280
000001FE
ENDCHAR
STARTCHAR Wcircumflex
ENCODING 372
SWIDTH 1266 0
DWIDTH 25 0
BBX 24 18 1 0
BITMAP
000006400000
000028640000
000090090000
000000000000
D0000780000D
A0000AC0001C
70000DD00028
34001CA00034
280024300070
0D00702800D0
0A00A01C01C0
0700D00D0280
0341C00A0340
028280070700
01C340034A00
009700028C00
007A0001E800
003C0000B400
ENDCHAR
STARTCHAR wcircumflex
ENCODING 373
SWIDTH 1266 0
DWIDTH 25 0
BBX 24 18 1 0
BITMAP
000006400000
000028640000
000090090000
000000000000
D0000780000D
A0000AC0001C
70000DD00028
34001CA00034
280024300070
0D00702800D0
0A00A01C01C0
0700D00D0280
0341C00A0340
028280070700
01C340034A00
009700028C00
007A0001E800
003C0000B400
ENDCHAR
STARTCHAR Ycircumflex
ENCODING 374
SWIDTH 763 0
DWIDTH 15 0
BBX 14 18 1 0
BITMAP
00190000
00A19000
02402400
00000000
E00001D0
34000340
1C000A00
0B002800
02807000
00D1D000
00774000
001E0000
000D0000
000D0000
000D0000
000D0000
000D0000
000D0000
ENDCHAR
STARTCHAR ycircumflex
ENCODING 375
SWIDTH 911 0
DWIDTH 18 0
BBX 15 18 1 0
BITMAP
00068000
00286400
00900900
00000000
7000001C
7000001C
7000001C
7000001C
3400002C
2400007C
1C0001DC
0B501A1C
01BFE41C
0000001C
00000038
000000B0
69001B80
1AFFE900
ENDCHAR
STARTCHAR Ydieresis
ENCODING 376
SWIDTH 763 0
DWIDTH 15 0
BBX 14 16 1 0
BITMAP
00D0D000
00000000
E00001D0
34000340
1C000A00
0B002800
02807000
00D1D000
00774000
001E0000
000D0000
000D0000
000D0000
000D0000
000D0000
000D0000
ENDCHAR
STARTCHAR Zacute
ENCODING 377
SWIDTH 728 0
DWIDTH 15 0
BBX 13 18 1 0
BITMAP
0000A000
00079000
00280000
00000000
7FFFFF00
00001D00
00003800
0000A000
0002C000
00070000
001D0000
00340000
00A00000
02800000
07000000
1D000000
34000000
BFFFFF40
ENDCHAR
STARTCHAR zacute
ENCODING 378
SWIDTH 728 0
DWIDTH 15 0
BBX 13 18 1 0
BITMAP
0000A000
00079000
00280000
00000000
7FFFFF00
00001D00
00003800
0000A000
0002C000
00070000
001D0000
00340000
00A00000
02800000
07000000
1D000000
34000000
BFFFFF40
ENDCHAR
STARTCHAR Zdotaccent
ENCODING 379
SWIDTH 728 0
DWIDTH 15 0
BBX 13 17 1 0
BITMAP
001D0000
001D0000
00000000
7FFFFF00
00001D00
00003800
0000A000
0002C000
00070000
001D0000
00340000
00A00000
02800000
07000000
1D000000
34000000
BFFFFF40
ENDCHAR
STARTCHAR zdotaccent
ENCODING 380
SWIDTH 728 0
DWIDTH 15 0
BBX 13 17 1 0
BITMAP
001D0000
001D0000
00000000
7FFFFF00
00001D00
00003800
0000A000
0002C000
00070000
001D0000
00340000
00A00000
02800000
07000000
1D000000
34000000
BFFFFF40
ENDCHAR
STARTCHAR Zcaron
ENCODING 381
SWIDTH 728 0
DWIDTH 15 0
BBX 13 18 1 0
BITMAP
02006000
01A68000
001D0000
00000000
7FFFFF00
00001D00
00003800
0000A000
0002C000
00070000
001D0000
00340000
00A00000
02800000
07000000
1D000000
34000000
BFFFFF40
ENDCHAR
STARTCHAR zcaron
ENCODING 382
SWIDTH 728 0
DWIDTH 15 0
BBX 13 18 1 0
BITMAP
02006000
01A68000
001D0000
00000000
7FFFFF00
00001D00
00003800
0000A000
0002C000
00070000
001D0000
00340000
00A00000
02800000
07000000
1D000000
34000000
BFFFFF40
ENDCHAR
STARTCHAR florin
ENCODING 402
SWIDTH 835 0
DWIDTH 17 0
BBX 16 15 0 -1
BITMAP
000006F9
00000D02
00002800
00003400
00007000
002FFFC0
0000D000
0000C000
0001C000
00028000
00034000
00070000
000A0000
502C0000
2FE00000
ENDCHAR
STARTCHAR AEacute
ENCODING 508
SWIDTH 1172 0
DWIDTH 23 0
BBX 22 18 0 0
BITMAP
000000006000
00000006D000
000000190000
000000000000
00007FFFFFE0
0000D7000000
000287000000
000707000000
000907000000
001C07000000
003407FFFFD0
00A007000000
01C007000000
03FFFF000000
0A0007000000
1C0007000000
340007000000
B00007FFFFF0
ENDCHAR
STARTCHAR aeacute
ENCODING 509
SWIDTH 1551 0
DWIDTH 31 0
BBX 29 18 1 0
BITMAP
0000000060000000
00000006D0000000
0000001900000000
0000000000000000
05BFF9001AFE8000
194006D0B501B400
0000007680000E00
0000002E00000340
0000002C00000280
0005ABF800000180
01BA542FFFFFFFC0
1E40002800000000
7400001C00000000
A000000D00000000
A000000E00000000
B00000B680000000
2D405B80B9001A00
06FFA40006FFA400
ENDCHAR
STARTCHAR Oslashacute
ENCODING 510
SWIDTH 983 0
DWIDTH 20 0
BBX 18 20 1 -2
BITMAP
0000060000
00006D0000
0000900D00
0000002800
006BFEB000
02D401F800
0E00028A00
2800060240
70000D01C0
A0002400D0
A0006000D0
A000C000D0
A0024000D0
700A0001C0
281C000340
0E34000A00
02F401B800
01EBFE4000
0340000000
0A00000000
ENDCHAR
STARTCHAR oslashacute
ENCODING 511
SWIDTH 983 0
DWIDTH 20 0
BBX 18 20 1 -2
BITMAP
0000060000
00006D0000
0000900D00
0000002800
006BFEB000
02D401F800
0E00028A00
2800060240
70000D01C0
A0002400D0
A0006000D0
A000C000D0
A0024000D0
700A0001C0
281C000340
0E34000A00
02F401B800
01EBFE4000
0340000000
0A00000000
ENDCHAR
STARTCHAR dotlessj
ENCODING 567
SWIDTH 590 0
DWIDTH 12 0
BBX 10 14 0 0
BITMAP
0000A0
0000A0
0000A0
0000A0
0000A0
0000A0
0000A0
0000A0
0000A0
0000A0
000090
0001D0
940740
6BF900
ENDCHAR
STARTCHAR circumflex
ENCODING 710
SWIDTH 527 0
DWIDTH 11 0
BBX 8 3 1 11
BITMAP
0290
1928
6006
ENDCHAR
STARTCHAR caron
ENCODING 711
SWIDTH 527 0
DWIDTH 11 0
BBX 8 3 1 11
BITMAP
6006
1D68
0290
ENDCHAR
STARTCHAR breve
ENCODING 728
SWIDTH 527 0
DWIDTH 11 0
BBX 7 2 2 11
BITMAP
E064
2FD0
ENDCHAR
STARTCHAR dotaccent
ENCODING 729
SWIDTH 527 0
DWIDTH 11 0
BBX 2 2 4 11
BITMAP
70
70
ENDCHAR
STARTCHAR ring
ENCODING 730
SWIDTH 527 0
DWIDTH 11 0
BBX 6 4 2 11
BITMAP
1F80
7060
7060
1F80
ENDCHAR
STARTCHAR ogonek
ENCODING 731
SWIDTH 527 0
DWIDTH 11 0
BBX 5 3 3 -3
BITMAP
2400
D000
BF40
ENDCHAR
STARTCHAR tilde
ENCODING 732
SWIDTH 527 0
DWIDTH 11 0
BBX 7 2 2 11
BITMAP
7918
C6F0
ENDCHAR
STARTCHAR hungarumlaut
ENCODING 733
SWIDTH 527 0
DWIDTH 11 0
BBX 7 3 2 11
BITMAP
0608
2D78
6090
ENDCHAR
STARTCHAR commaaccent
ENCODING 806
SWIDTH 527 0
DWIDTH 11 0
BBX 2 3 4 -4
BITMAP
70
60
90
ENDCHAR
STARTCHAR mu
ENCODING 956
SWIDTH 705 0
DWIDTH 14 0
BBX 12 13 0 -4
BITMAP
034003
030007
070006
06000A
0A000D
0D001C
0E003C
1E419C
18BE0D
280000
340000
340000
700000
ENDCHAR
STARTCHAR Wgrave
ENCODING 7808
SWIDTH 1266 0
DWIDTH 25 0
BBX 24 18 1 0
BITMAP
0000A0000000
00006E000000
000002800000
000000000000
D0000780000D
A0000AC0001C
70000DD00028
34001CA00034
280024300070
0D00702800D0
0A00A01C01C0
0700D00D0280
0341C00A0340
028280070700
01C340034A00
009700028C00
007A0001E800
003C0000B400
ENDCHAR
STARTCHAR wgrave
ENCODING 7809
SWIDTH 1266 0
DWIDTH 25 0
BBX 24 18 1 0
BITMAP
0000A0000000
00006E000000
000002800000
000000000000
D0000780000D
A0000AC0001C
70000DD00028
34001CA00034
280024300070
0D00702800D0
0A00A01C01C0
0700D00D0280
0341C00A0340
028280070700
01C340034A00
009700028C00
007A0001E800
003C0000B400
ENDCHAR
STARTCHAR Wacute
ENCODING 7810
SWIDTH 1266 0
DWIDTH 25 0
BBX 24 18 1 0
BITMAP
000000180000
000001E40000
000006400000
000000000000
D0000780000D
A0000AC0001C
70000DD00028
34001CA00034
280024300070
0D00702800D0
0A00A01C01C0
0700D00D0280
0341C00A0340
028280070700
01C340034A00
009700028C00
007A0001E800
003C0000B400
ENDCHAR
STARTCHAR wacute
ENCODING 7811
SWIDTH 1266 0
DWIDTH 25 0
BBX 24 18 1 0
BITMAP
000000180000
000001E40000
000006400000
000000000000
D0000780000D
A0000AC0001C
70000DD00028
34001CA00034
280024300070
0D00702800D0
0A00A01C01C0
0700D00D0280
0341C00A0340
028280070700
01C340034A00
009700028C00
007A0001E800
003C0000B400
ENDCHAR
STARTCHAR Wdieresis
ENCODING 7812
SWIDTH 1266 0
DWIDTH 25 0
BBX 24 16 1 0
BITMAP
000034340000
000000000000
D0000780000D
A0000AC0001C
70000DD00028
34001CA00034
280024300070
0D00702800D0
0A00A01C01C0
0700D00D0280
0341C00A0340
028280070700
01C340034A00
009700028C00
007A0001E800
003C0000B400
ENDCHAR
STARTCHAR wdieresis
ENCODING 7813
SWIDTH 1266 0
DWIDTH 25 0
BBX 24 16 1 0
BITMAP
000034340000
000000000000
D0000780000D
A0000AC0001C
70000DD00028
34001CA00034
280024300070
0D00702800D0
0A00A01C01C0
0700D00D0280
0341C00A0340
028280070700
01C340034A00
009700028C00
007A0001E800
003C0000B400
ENDCHAR
STARTCHAR Ygrave
ENCODING 7922
SWIDTH 763 0
DWIDTH 15 0
BBX 14 18 1 0
BITMAP
02800000
01B80000
000A0000
00000000
E00001D0
34000340
1C000A00
0B002800
02807000
00D1D000
00774000
001E0000
000D0000
000D0000
000D0000
000D0000
000D0000
000D0000
ENDCHAR
STARTCHAR ygrave
ENCODING 7923
SWIDTH 911 0
DWIDTH 18 0
BBX 15 18 1 0
BITMAP
00640000
002E0000
00018000
00000000
7000001C
7000001C
7000001C
7000001C
3400002C
2400007C
1C0001DC
0B501A1C
01BFE41C
0000001C
00000038
000000B0
69001B80
1AFFE900
ENDCHAR
STARTCHAR endash
ENCODING 8211
SWIDTH 419 0
DWIDTH 8 0
BBX 8 1 0 6
BITMAP
BFFF
ENDCHAR
STARTCHAR emdash
ENCODING 8212
SWIDTH 1000 0
DWIDTH 20 0
BBX 20 1 0 6
BITMAP
FFFFFFFFFF
ENDCHAR
STARTCHAR quoteleft
ENCODING 8216
SWIDTH 163 0
DWIDTH 3 0
BBX 3 4 0 10
BITMAP
18
24
34
70
ENDCHAR
STARTCHAR quoteright
ENCODING 8217
SWIDTH 163 0
DWIDTH 3 0
BBX 3 4 0 10
BITMAP
28
34
30
60
ENDCHAR
STARTCHAR quotesinglbase
ENCODING 8218
SWIDTH 163 0
DWIDTH 3 0
BBX 3 4 0 -2
BITMAP
28
34
30
60
ENDCHAR
STARTCHAR quotedblleft
ENCODING 8220
SWIDTH 303 0
DWIDTH 6 0
BBX 6 4 0 10
BITMAP
1890
24D0
35C0
71C0
ENDCHAR
STARTCHAR quotedblright
ENCODING 8221
SWIDTH 303 0
DWIDTH 6 0
BBX 6 4 0 10
BITMAP
28D0
35C0
3180
6280
ENDCHAR
STARTCHAR quotedblbase
ENCODING 8222
SWIDTH 303 0
DWIDTH 6 0
BBX 6 4 0 -2
BITMAP
28D0
35C0
3180
6280
ENDCHAR
STARTCHAR dagger
ENCODING 8224
SWIDTH 500 0
DWIDTH 10 0
BBX 8 14 1 0
BITMAP
0280
0280
0280
0280
7FFD
0280
0280
0280
0280
0280
0280
0280
0280
0280
ENDCHAR
STARTCHAR daggerdbl
ENCODING 8225
SWIDTH 500 0
DWIDTH 10 0
BBX 8 14 1 0
BITMAP
0280
0280
0280
0280
7FFD
0280
0280
0280
7FFD
0280
0280
0280
0280
0280
ENDCHAR
STARTCHAR bullet
ENCODING 8226
SWIDTH 352 0
DWIDTH 7 0
BBX 5 4 1 5
BITMAP
2E00
7F40
7F40
2E00
ENDCHAR
STARTCHAR ellipsis
ENCODING 8230
SWIDTH 555 0
DWIDTH 11 0
BBX 9 2 1 0
BITMAP
E1D2C0
E1D2C0
ENDCHAR
STARTCHAR perthousand
ENCODING 8240
SWIDTH 1401 0
DWIDTH 28 0
BBX 26 14 1 0
BITMAP
1BE00074000000
742C00D0000000
D0090280000000
D00A0600000000
D0091C00000000
742C3400000000
1BE0A000000000
000282F900BE40
00070E074381D0
000D1801C60070
00242800CA0070
00A01801C60070
01C00E074381D0
034002F900BE40
ENDCHAR
STARTCHAR guilsinglleft
ENCODING 8249
SWIDTH 257 0
DWIDTH 5 0
BBX 4 7 0 3
BITMAP
02
0A
28
70
28
0A
02
ENDCHAR
STARTCHAR guilsinglright
ENCODING 8250
SWIDTH 257 0
DWIDTH 5 0
BBX 4 7 1 3
BITMAP
80
70
2C
0D
2C
70
80
ENDCHAR
STARTCHAR fraction
ENCODING 8260
SWIDTH 200 0
DWIDTH 4 0
BBX 12 14 -4 0
BITMAP
00000A
000018
000070
0000D0
000280
000A00
001C00
003400
00A000
028000
070000
0D0000
240000
A00000
ENDCHAR
STARTCHAR Euro
ENCODING 8364
SWIDTH 833 0
DWIDTH 17 0
BBX 15 14 0 0
BITMAP
0006FE80
002D0164
00E00004
02800000
03400000
7FFFFE00
06000000
06000000
7FFFFC00
03000000
02800000
00E00004
00390164
0006FE40
ENDCHAR
STARTCHAR trademark
ENCODING 8482
SWIDTH 773 0
DWIDTH 15 0
BBX 14 6 0 8
BITMAP
7FDA00D0
050A0190
05098250
05088550
05086850
05082450
ENDCHAR
STARTCHAR partialdiff
ENCODING 8706
SWIDTH 790 0
DWIDTH 16 0
BBX 14 14 1 0
BITMAP
006FE400
01901A00
00000280
000000D0
00000090
01BF90A0
1E406DA0
340006D0
A00000D0
900001C0
A0000340
70000A00
2D417800
06FF9000
ENDCHAR
STARTCHAR minus
ENCODING 8722
SWIDTH 634 0
DWIDTH 13 0
BBX 10 1 1 6
BITMAP
7FFFF0
ENDCHAR
STARTCHAR uni2215
ENCODING 8725
SWIDTH 200 0
DWIDTH 4 0
BBX 12 14 -4 0
BITMAP
00000A
000018
000070
0000D0
000280
000A00
001C00
003400
00A000
028000
070000
0D0000
240000
A00000
ENDCHAR
STARTCHAR approxequal
ENCODING 8776
SWIDTH 634 0
DWIDTH 13 0
BBX 11 5 1 4
BITMAP
2F9424
506BD0
000000
2F9424
506BD0
ENDCHAR
STARTCHAR notequal
ENCODING 8800
SWIDTH 634 0
DWIDTH 13 0
BBX 10 11 1 1
BITMAP
000900
000C00
001800
7FFFF0
003000
007000
00A000
7FFFF0
01C000
028000
034000
ENDCHAR
STARTCHAR lessequal
ENCODING 8804
SWIDTH 634 0
DWIDTH 13 0
BBX 10 11 1 1
BITMAP
000060
000B90
01B800
1A4000
780000
1A4000
01B800
000B90
000060
000000
7FFFF0
ENDCHAR
STARTCHAR greaterequal
ENCODING 8805
SWIDTH 634 0
DWIDTH 13 0
BBX 11 11 1 1
BITMAP
640000
1A4000
01B800
000B90
0000B4
000B90
01B800
1A4000
640000
000000
7FFFF0
ENDCHAR
STARTCHAR fi
ENCODING 64257
SWIDTH 1104 0
DWIDTH 22 0
BBX 18 14 2 0
BITMAP
06BFFFC070
2E40000070
7400000070
A000000070
9000000070
9000000070
BFFFFFC070
9000000070
9000000070
9000000070
9000000070
9000000070
9000000070
9000000070
ENDCHAR
STARTCHAR fl
ENCODING 64258
SWIDTH 1527 0
DWIDTH 31 0
BBX 29 14 2 0
BITMAP
06BFFFC070000000
2E40000070000000
7400000070000000
A000000070000000
9000000070000000
9000000070000000
BFFFFFC070000000
9000000070000000
9000000070000000
9000000070000000
9000000070000000
9000000034000000
900000002D000000
9000000006FFFF40
ENDCHAR
STARTCHAR .notdef
ENCODING -1
SWIDTH 1000 0
DWIDTH 20 0
BBX 1 1 0 0
BITMAP
00
ENDCHAR
ENDFONT
